<svg xmlns="http://www.w3.org/2000/svg" xmlns:v="https://svgstorm.com"
viewBox = "0 0 459 110"
width="459"
height="110">
<g fill="None" fill-opacity="0.0" stroke="#FDFDFD" stroke-opacity="1.00" stroke-width="0.3"><path d="
M 0.00 110.00 
L 96.00 110.00
C 95.49 109.49 95.39 108.53 95.00 108.00
C 91.13 102.83 87.47 97.15 85.00 91.00
C 81.34 81.89 81.09 72.10 81.00 62.00
C 80.96 57.53 82.71 51.40 83.33 46.33 C 83.94 41.25 88.71 36.88 89.00 32.00
C 89.41 25.12 83.10 18.20 84.00 11.00
C 78.99 10.99 76.80 13.84 78.00 19.00
C 77.91 23.38 77.35 28.35 77.00 32.00
C 77.00 39.00 77.14 46.01 77.00 53.00
C 76.95 55.41 76.16 58.30 76.00 60.00
C 75.84 68.00 76.16 76.00 76.00 84.00
C 75.95 86.72 76.53 89.67 75.00 92.00
C 73.95 90.63 71.56 91.77 71.00 90.00
C 58.85 84.95 67.20 66.58 66.00 55.00 C 64.80 43.42 68.01 26.84 68.00 15.00
C 57.75 17.90 47.13 19.64 37.00 23.00
C 42.25 12.62 57.25 9.07 65.00 0.00
L 0.00 0.00
L 0.00 110.00 Z"/>
</g>
<g fill="None" fill-opacity="0.0" stroke="#111111" stroke-opacity="1.00" stroke-width="0.3"><path d="
M 71.00 90.00 
C 75.88 88.41 72.68 72.74 74.00 68.00
C 77.02 75.03 73.20 83.35 74.00 91.00
C 76.50 89.67 73.43 85.26 76.00 84.00
C 76.16 76.00 75.84 68.00 76.00 60.00
C 76.05 57.59 76.84 54.70 77.00 53.00
C 77.14 46.01 77.00 39.00 77.00 32.00
C 77.00 27.55 77.55 22.72 78.00 19.00
C 76.80 13.84 78.99 10.99 84.00 11.00
C 83.10 18.20 89.41 25.12 89.00 32.00
C 92.13 29.63 101.02 29.92 105.00 29.00
C 105.47 28.89 106.66 29.23 107.00 29.00
C 110.82 26.39 117.14 25.55 119.00 29.00
C 119.07 28.55 119.85 26.94 120.00 26.00
C 120.21 24.70 119.84 23.31 120.00 22.00
C 123.70 21.46 126.74 18.91 131.00 20.00
C 131.00 18.67 131.00 17.33 131.00 16.00
C 126.66 18.06 121.54 13.72 117.00 13.00
C 125.56 11.78 132.22 6.40 138.00 0.00
L 65.00 0.00
C 57.25 9.07 42.25 12.62 37.00 23.00
C 47.13 19.64 57.75 17.90 68.00 15.00
C 68.01 26.84 64.80 43.42 66.00 55.00 C 67.20 66.58 58.85 84.95 71.00 90.00
M 70.00 54.00 
C 69.44 56.52 71.19 60.30 69.00 62.00
C 69.56 59.48 67.81 55.70 70.00 54.00
M 71.00 74.00 
C 71.04 78.42 70.69 83.40 69.00 87.00
C 66.94 83.13 68.48 78.28 68.00 74.00
C 69.77 76.98 69.13 76.68 71.00 74.00 Z"/>
</g>
<g fill="None" fill-opacity="0.0" stroke="#333333" stroke-opacity="1.00" stroke-width="0.3"><path d="
M 131.00 20.00 
C 132.79 19.31 133.18 17.51 134.00 16.00
C 136.41 20.17 136.17 17.14 139.00 16.00
C 143.43 12.46 148.13 8.03 152.00 4.00
C 153.09 2.87 154.14 1.26 155.00 0.00
L 138.00 0.00
C 132.22 6.40 125.56 11.78 117.00 13.00
C 121.54 13.72 126.66 18.06 131.00 16.00
C 131.00 17.33 131.00 18.67 131.00 20.00 Z"/>
</g>
<g fill="None" fill-opacity="0.0" stroke="#999EA5" stroke-opacity="1.00" stroke-width="0.3"><path d="
M 152.00 4.00 
C 152.10 3.82 151.40 5.97 151.00 7.00
C 152.84 6.75 157.66 6.65 157.00 11.00
C 157.46 10.87 158.74 11.25 159.00 11.00
C 160.41 9.67 159.39 9.14 162.00 11.00
C 162.00 9.67 162.00 8.33 162.00 7.00
C 162.54 5.10 162.78 2.31 164.00 0.00
L 155.00 0.00
C 154.14 1.26 153.09 2.87 152.00 4.00 Z"/>
</g>
<g fill="None" fill-opacity="0.0" stroke="#3D4D76" stroke-opacity="1.00" stroke-width="0.3"><path d="
M 162.00 7.00 
C 161.98 6.90 166.69 10.16 166.00 13.00
C 167.15 8.94 173.13 15.71 173.00 10.00
C 177.53 14.52 185.09 8.51 187.00 15.00
C 187.04 11.91 186.40 10.15 190.00 12.00
C 191.47 11.97 193.88 10.85 195.00 11.00
C 189.77 6.35 183.19 2.80 177.00 0.00
L 164.00 0.00
C 162.78 2.31 162.54 5.10 162.00 7.00 Z"/>
</g>
<g fill="None" fill-opacity="0.0" stroke="#F6F8F7" stroke-opacity="1.00" stroke-width="0.3"><path d="
M 195.00 11.00 
C 211.39 25.57 220.47 42.37 222.00 64.00
C 222.09 65.25 222.15 66.76 222.00 68.00
C 221.48 72.26 221.41 77.88 220.00 82.00
C 219.65 83.03 219.34 83.95 219.00 85.00
C 217.87 88.49 216.35 91.90 215.00 95.00
C 213.51 98.41 212.11 101.80 210.00 105.00
C 208.91 106.65 206.95 107.89 207.00 110.00
L 218.00 110.00
C 218.35 100.71 226.56 94.28 227.92 84.92 C 229.28 75.57 231.76 61.96 229.01 52.99 C 226.25 44.02 224.97 34.43 219.25 27.75 C 213.52 21.08 212.32 11.12 204.00 10.00
C 202.46 5.06 198.42 4.17 196.00 0.00
L 177.00 0.00
C 183.19 2.80 189.77 6.35 195.00 11.00 Z"/>
</g>
<g fill="None" fill-opacity="0.0" stroke="#D2F4DB" stroke-opacity="1.00" stroke-width="0.3"><path d="
M 218.00 110.00 
L 219.00 110.00
C 238.06 80.33 234.55 41.30 213.00 14.00
C 210.01 10.77 206.18 6.94 203.00 4.00
C 201.30 2.66 199.37 1.41 198.00 0.00
L 196.00 0.00
C 198.42 4.17 202.46 5.06 204.00 10.00
C 212.32 11.12 213.52 21.08 219.25 27.75 C 224.97 34.43 226.25 44.02 229.01 52.99 C 231.76 61.96 229.28 75.57 227.92 84.92 C 226.56 94.28 218.35 100.71 218.00 110.00 Z"/>
</g>
<g fill="None" fill-opacity="0.0" stroke="#06842E" stroke-opacity="1.00" stroke-width="0.3"><path d="
M 203.00 4.00 
C 206.66 6.89 210.15 10.39 213.00 14.00
C 234.55 41.30 238.06 80.33 219.00 110.00
L 244.00 110.00
C 243.03 95.58 245.29 82.56 244.00 68.00 C 242.71 53.44 246.47 41.08 244.00 26.00 C 241.53 10.92 266.42 10.01 265.00 25.00 C 263.58 39.99 265.73 52.39 265.00 67.00 C 264.27 81.61 265.54 95.46 265.00 110.00
L 274.00 110.00
C 274.07 103.82 273.91 97.13 274.00 91.00 C 274.09 84.87 273.83 77.94 274.00 72.00 C 274.17 66.06 273.63 58.48 274.00 53.00 C 274.37 47.52 273.18 38.46 274.00 34.00 C 274.82 29.54 271.36 16.99 276.00 16.00
C 286.31 15.07 300.89 15.34 310.22 17.78 C 319.55 20.22 326.36 24.45 329.97 34.03 C 333.59 43.60 325.18 54.97 324.00 63.00
C 335.70 68.72 339.30 82.86 337.00 94.00
C 345.11 89.80 352.67 83.91 357.92 94.08 C 363.18 104.24 382.11 96.79 378.00 86.00
C 373.88 84.43 372.57 80.17 368.32 77.68 C 364.07 75.19 360.64 71.00 358.00 67.00
C 347.04 56.04 334.75 43.01 344.00 27.00
C 344.37 26.36 344.63 25.60 345.00 25.00
C 346.88 21.91 349.54 20.84 352.00 19.00
C 355.17 16.62 353.60 16.79 358.00 17.00
C 358.50 16.79 359.61 16.30 360.00 16.00
C 366.76 10.85 375.42 16.27 383.00 16.00
C 384.39 21.85 394.19 22.52 395.77 28.23 C 397.35 33.94 386.92 38.00 384.00 41.00
C 383.14 42.01 383.10 43.34 382.00 42.00
C 381.77 41.72 381.33 41.17 381.00 41.00
C 377.18 39.09 373.73 34.26 370.00 33.00
C 369.24 32.74 367.81 33.00 367.00 33.00
C 364.48 33.90 363.59 38.96 360.00 39.00
C 368.48 50.94 379.29 57.30 390.25 67.75 C 401.21 78.21 403.63 99.60 391.00 110.00
L 419.00 110.00
C 419.00 73.33 419.00 36.67 419.00 0.00
L 198.00 0.00
C 199.37 1.41 201.30 2.66 203.00 4.00 Z"/>
</g>
<g fill="None" fill-opacity="0.0" stroke="#A4E2BA" stroke-opacity="1.00" stroke-width="0.3"><path d="
M 419.00 110.00 
L 420.00 110.00
C 420.00 73.33 420.00 36.67 420.00 0.00
L 419.00 0.00
C 419.00 36.67 419.00 73.33 419.00 110.00 Z"/>
</g>
<g fill="None" fill-opacity="0.0" stroke="#E6FFF4" stroke-opacity="1.00" stroke-width="0.3"><path d="
M 420.00 110.00 
L 421.00 110.00
C 421.00 73.33 421.00 36.67 421.00 0.00
L 420.00 0.00
C 420.00 36.67 420.00 73.33 420.00 110.00 Z"/>
</g>
<g fill="None" fill-opacity="0.0" stroke="#FEFEFE" stroke-opacity="1.00" stroke-width="0.3"><path d="
M 421.00 110.00 
L 459.00 110.00
L 459.00 0.00
L 421.00 0.00
C 421.00 36.67 421.00 73.33 421.00 110.00 Z"/>
</g>
<g fill="None" fill-opacity="0.0" stroke="#D5D6D7" stroke-opacity="1.00" stroke-width="0.3"><path d="
M 139.00 16.00 
C 137.45 18.79 134.44 29.11 134.00 33.00
C 133.79 34.85 135.91 38.06 133.00 40.00
C 136.85 41.51 143.69 37.41 146.00 43.00
C 147.59 40.73 151.05 41.26 154.00 40.00
C 156.98 45.22 161.39 42.07 161.00 37.00
C 163.02 39.03 164.95 41.47 167.00 38.00
C 164.95 32.44 163.17 24.96 160.00 20.00
C 155.67 15.13 146.56 20.27 141.00 17.00
C 144.09 14.81 149.16 16.57 153.00 16.00
C 154.09 15.66 155.03 14.54 156.00 14.00
C 156.56 12.93 155.27 11.50 157.00 11.00
C 157.66 6.65 152.84 6.75 151.00 7.00
C 151.40 5.97 152.10 3.82 152.00 4.00
C 148.13 8.03 143.43 12.46 139.00 16.00 Z"/>
</g>
<g fill="None" fill-opacity="0.0" stroke="#7AB98D" stroke-opacity="1.00" stroke-width="0.3"><path d="
M 213.00 14.00 
C 210.15 10.39 206.66 6.89 203.00 4.00
C 206.18 6.94 210.01 10.77 213.00 14.00 Z"/>
</g>
<g fill="None" fill-opacity="0.0" stroke="#26324F" stroke-opacity="1.00" stroke-width="0.3"><path d="
M 162.00 7.00 
C 162.00 8.33 162.00 9.67 162.00 11.00
C 159.39 9.14 160.41 9.67 159.00 11.00
C 163.43 11.74 157.04 13.43 156.00 14.00
C 155.03 14.54 154.09 15.66 153.00 16.00
C 156.35 16.41 158.27 17.29 160.00 20.00
C 163.17 24.96 164.95 32.44 167.00 38.00
C 167.98 40.65 168.98 43.31 170.00 46.00
C 170.63 46.80 171.42 47.03 172.00 48.00
C 174.06 48.94 179.56 48.24 179.00 45.00
C 177.53 44.17 175.75 42.93 176.00 41.00
C 175.92 40.51 176.20 39.40 176.00 39.00
C 174.94 36.90 174.68 35.50 177.00 34.00
C 174.80 33.09 172.66 28.94 176.00 28.00
C 176.06 31.88 181.18 34.70 180.00 38.00
C 182.28 38.85 182.59 36.85 184.00 36.00
C 184.11 34.67 186.10 31.18 187.00 30.00
C 186.30 35.48 190.28 34.30 195.00 34.00
C 196.18 33.42 195.65 28.99 197.00 31.00
C 196.87 28.63 196.84 26.44 202.00 27.00
C 198.05 25.59 192.23 24.16 197.00 18.00
C 194.55 18.87 190.40 22.96 193.00 26.00
C 192.92 27.48 192.49 29.54 191.00 32.00
C 187.90 30.63 187.58 26.65 183.00 29.00
C 180.68 23.55 186.24 20.16 190.00 17.00
C 189.80 15.49 188.32 13.31 190.00 12.00
C 186.40 10.15 187.04 11.91 187.00 15.00
C 185.09 8.51 177.53 14.52 173.00 10.00
C 173.13 15.71 167.15 8.94 166.00 13.00
C 166.69 10.16 161.98 6.90 162.00 7.00
M 161.00 17.00 
C 162.33 18.17 168.70 15.67 167.19 19.25 C 165.69 22.83 159.62 20.74 161.00 17.00
M 174.00 36.00 
C 173.73 37.33 172.27 38.18 171.00 38.00
C 170.88 36.17 170.74 33.54 173.00 33.00
C 174.09 33.25 174.19 35.09 174.00 36.00 Z"/>
</g>
<g fill="None" fill-opacity="0.0" stroke="#BAC0D9" stroke-opacity="1.00" stroke-width="0.3"><path d="
M 156.00 14.00 
C 157.04 13.43 163.43 11.74 159.00 11.00
C 158.74 11.25 157.46 10.87 157.00 11.00
C 155.27 11.50 156.56 12.93 156.00 14.00 Z"/>
</g>
<g fill="None" fill-opacity="0.0" stroke="#96999C" stroke-opacity="1.00" stroke-width="0.3"><path d="
M 190.00 12.00 
C 188.32 13.31 189.80 15.49 190.00 17.00
C 190.19 18.42 191.54 19.48 190.35 21.70 C 189.16 23.91 192.59 24.70 193.00 26.00
C 190.40 22.96 194.55 18.87 197.00 18.00
C 192.23 24.16 198.05 25.59 202.00 27.00
C 196.84 26.44 196.87 28.63 197.00 31.00
C 197.28 36.23 199.41 44.06 204.00 46.00
C 207.26 47.38 207.92 45.52 211.00 45.00
C 210.52 47.66 214.53 48.32 214.00 51.00
C 210.11 49.97 206.48 50.93 203.00 50.00
C 202.85 50.34 202.35 50.91 202.00 51.00
C 200.66 56.02 205.99 57.96 210.00 57.00
C 210.52 59.23 208.46 60.73 209.00 63.00
C 208.14 64.53 204.22 63.97 205.00 67.00
C 206.00 67.00 207.00 67.00 208.00 67.00
C 209.72 65.21 215.84 79.15 215.00 82.00
C 209.61 79.25 212.11 71.55 208.00 68.00
C 202.82 68.26 202.43 72.18 208.00 70.00
C 200.43 77.47 201.81 95.52 192.00 99.00
C 193.33 102.64 194.25 106.47 196.00 110.00
L 207.00 110.00
C 206.95 107.89 208.91 106.65 210.00 105.00
C 209.67 106.68 207.44 103.31 208.93 100.92 C 210.43 98.53 213.65 96.62 215.00 95.00
C 216.35 91.90 217.87 88.49 219.00 85.00
C 217.67 85.00 216.33 85.00 215.00 85.00
C 214.76 82.60 218.06 81.88 220.00 82.00
C 221.41 77.88 221.48 72.26 222.00 68.00
C 221.97 67.34 220.50 67.27 220.08 65.92 C 219.67 64.56 222.00 63.89 222.00 64.00
C 220.47 42.37 211.39 25.57 195.00 11.00
C 193.88 10.85 191.47 11.97 190.00 12.00
M 206.00 96.00 
C 206.16 101.05 201.57 96.33 206.00 96.00
M 202.00 100.00 
C 203.21 106.27 199.11 103.91 202.00 100.00 Z"/>
</g>
<g fill="None" fill-opacity="0.0" stroke="#345E3F" stroke-opacity="1.00" stroke-width="0.3"><path d="
M 360.00 16.00 
C 370.99 12.28 386.85 17.87 393.00 28.00
C 393.55 28.90 395.81 29.22 395.00 31.00
C 391.09 31.50 389.43 36.44 386.00 38.00
C 385.23 38.84 384.70 40.18 384.00 41.00
C 386.92 38.00 397.35 33.94 395.77 28.23 C 394.19 22.52 384.39 21.85 383.00 16.00
C 375.42 16.27 366.76 10.85 360.00 16.00 Z"/>
</g>
<g fill="None" fill-opacity="0.0" stroke="#19753A" stroke-opacity="1.00" stroke-width="0.3"><path d="
M 244.00 110.00 
L 245.00 110.00
C 245.26 102.47 244.66 94.48 245.00 87.00 C 245.34 79.52 244.37 70.22 245.00 63.00 C 245.63 55.78 243.59 46.48 245.00 40.00 C 246.41 33.52 241.55 21.28 246.00 17.00
C 251.61 11.39 266.80 15.70 264.00 25.00 C 261.20 34.30 265.29 43.63 264.00 53.00 C 262.71 62.37 264.65 71.54 264.00 81.00 C 263.35 90.46 264.49 100.49 264.00 110.00
L 265.00 110.00
C 265.54 95.46 264.27 81.61 265.00 67.00 C 265.73 52.39 263.58 39.99 265.00 25.00 C 266.42 10.01 241.53 10.92 244.00 26.00 C 246.47 41.08 242.71 53.44 244.00 68.00 C 245.29 82.56 243.03 95.58 244.00 110.00 Z"/>
</g>
<g fill="None" fill-opacity="0.0" stroke="#D7D8D7" stroke-opacity="1.00" stroke-width="0.3"><path d="
M 360.00 16.00 
C 359.61 16.30 358.50 16.79 358.00 17.00
C 356.26 17.72 353.62 18.04 352.00 19.00
C 350.03 20.17 346.68 23.20 345.00 25.00
C 344.63 25.60 344.37 26.36 344.00 27.00
C 345.11 28.80 342.28 36.51 343.00 43.00
C 343.54 44.65 346.40 44.74 346.00 47.00
C 348.71 40.91 350.47 49.27 355.00 48.00
C 351.10 41.92 358.77 46.06 361.00 48.00
C 360.92 45.86 356.60 43.64 359.00 42.00
C 358.55 38.29 357.76 33.86 363.00 33.00
C 363.08 32.99 363.00 32.00 363.00 32.00
C 367.55 27.30 377.59 32.28 381.25 36.75 C 384.90 41.22 392.62 28.04 393.00 28.00
C 386.85 17.87 370.99 12.28 360.00 16.00 Z"/>
</g>
<g fill="None" fill-opacity="0.0" stroke="#202635" stroke-opacity="1.00" stroke-width="0.3"><path d="
M 131.00 20.00 
C 126.74 18.91 123.70 21.46 120.00 22.00
C 119.84 23.31 120.21 24.70 120.00 26.00
C 125.77 21.86 126.07 33.60 130.00 27.00
C 130.38 29.22 130.65 36.31 134.00 33.00
C 134.44 29.11 137.45 18.79 139.00 16.00
C 136.17 17.14 136.41 20.17 134.00 16.00
C 133.18 17.51 132.79 19.31 131.00 20.00 Z"/>
</g>
<g fill="None" fill-opacity="0.0" stroke="#7A7A7B" stroke-opacity="1.00" stroke-width="0.3"><path d="
M 160.00 20.00 
C 158.27 17.29 156.35 16.41 153.00 16.00
C 149.16 16.57 144.09 14.81 141.00 17.00
C 146.56 20.27 155.67 15.13 160.00 20.00 Z"/>
</g>
<g fill="None" fill-opacity="0.0" stroke="#2F5A3C" stroke-opacity="1.00" stroke-width="0.3"><path d="
M 246.00 17.00 
C 249.19 16.71 261.27 15.53 263.00 18.00
C 265.84 22.06 261.73 30.82 263.00 36.00 C 264.27 41.18 262.45 48.25 263.00 54.00 C 263.55 59.75 262.73 67.02 263.00 73.00 C 263.27 78.98 262.87 84.90 263.00 91.00 C 263.13 97.10 262.90 103.84 263.00 110.00
L 264.00 110.00
C 264.49 100.49 263.35 90.46 264.00 81.00 C 264.65 71.54 262.71 62.37 264.00 53.00 C 265.29 43.63 261.20 34.30 264.00 25.00 C 266.80 15.70 251.61 11.39 246.00 17.00 Z"/>
</g>
<g fill="None" fill-opacity="0.0" stroke="#4A8B5C" stroke-opacity="1.00" stroke-width="0.3"><path d="
M 274.00 110.00 
L 275.00 110.00
C 275.71 100.14 274.05 88.70 275.00 79.00 C 275.95 69.30 273.18 57.13 275.00 48.00 C 276.82 38.87 270.77 24.05 276.00 17.00
C 276.24 16.68 276.00 16.00 276.00 16.00
C 271.36 16.99 274.82 29.54 274.00 34.00 C 273.18 38.46 274.37 47.52 274.00 53.00 C 273.63 58.48 274.17 66.06 274.00 72.00 C 273.83 77.94 274.09 84.87 274.00 91.00 C 273.91 97.13 274.07 103.82 274.00 110.00 Z"/>
</g>
<g fill="None" fill-opacity="0.0" stroke="#376C44" stroke-opacity="1.00" stroke-width="0.3"><path d="
M 276.00 17.00 
C 282.64 16.40 290.14 17.43 296.00 18.00
C 304.71 18.00 312.39 18.88 319.00 24.00
C 321.28 25.77 323.38 27.66 325.00 30.00
C 328.40 34.91 329.54 41.30 328.00 47.00
C 326.40 52.91 321.98 57.00 319.00 62.00
C 335.10 67.41 340.80 88.76 331.00 102.00
C 328.94 104.88 325.91 107.10 324.00 110.00
L 327.00 110.00
C 329.90 106.27 332.15 100.18 336.00 97.00
C 337.10 96.09 338.57 95.73 340.00 95.00
C 343.76 93.07 347.55 89.48 352.00 89.00
C 356.09 97.31 365.68 104.09 375.00 100.00
C 382.87 95.38 379.44 85.58 374.25 80.75 C 369.05 75.92 362.93 71.93 358.00 67.00
C 360.64 71.00 364.07 75.19 368.32 77.68 C 372.57 80.17 373.88 84.43 378.00 86.00
C 382.11 96.79 363.18 104.24 357.92 94.08 C 352.67 83.91 345.11 89.80 337.00 94.00
C 339.30 82.86 335.70 68.72 324.00 63.00
C 325.18 54.97 333.59 43.60 329.97 34.03 C 326.36 24.45 319.55 20.22 310.22 17.78 C 300.89 15.34 286.31 15.07 276.00 16.00
C 276.00 16.00 276.24 16.68 276.00 17.00 Z"/>
</g>
<g fill="None" fill-opacity="0.0" stroke="#3E6753" stroke-opacity="1.00" stroke-width="0.3"><path d="
M 352.00 19.00 
C 353.62 18.04 356.26 17.72 358.00 17.00
C 353.60 16.79 355.17 16.62 352.00 19.00 Z"/>
</g>
<g fill="None" fill-opacity="0.0" stroke="#BBC4D6" stroke-opacity="1.00" stroke-width="0.3"><path d="
M 161.00 17.00 
C 159.62 20.74 165.69 22.83 167.19 19.25 C 168.70 15.67 162.33 18.17 161.00 17.00 Z"/>
</g>
<g fill="None" fill-opacity="0.0" stroke="#B0B4BE" stroke-opacity="1.00" stroke-width="0.3"><path d="
M 193.00 26.00 
C 192.59 24.70 189.16 23.91 190.35 21.70 C 191.54 19.48 190.19 18.42 190.00 17.00
C 186.24 20.16 180.68 23.55 183.00 29.00
C 187.58 26.65 187.90 30.63 191.00 32.00
C 192.49 29.54 192.92 27.48 193.00 26.00 Z"/>
</g>
<g fill="None" fill-opacity="0.0" stroke="#CCFEDB" stroke-opacity="1.00" stroke-width="0.3"><path d="
M 245.00 110.00 
L 246.00 110.00
C 246.00 79.33 246.00 48.67 246.00 18.00
C 246.00 17.50 246.00 17.00 246.00 17.00
C 241.55 21.28 246.41 33.52 245.00 40.00 C 243.59 46.48 245.63 55.78 245.00 63.00 C 244.37 70.22 245.34 79.52 245.00 87.00 C 244.66 94.48 245.26 102.47 245.00 110.00 Z"/>
</g>
<g fill="None" fill-opacity="0.0" stroke="#858B86" stroke-opacity="1.00" stroke-width="0.3"><path d="
M 246.00 18.00 
C 251.62 18.51 257.37 17.62 263.00 18.00
C 261.27 15.53 249.19 16.71 246.00 17.00
C 246.00 17.00 246.00 17.50 246.00 18.00 Z"/>
</g>
<g fill="None" fill-opacity="0.0" stroke="#DDFDE5" stroke-opacity="1.00" stroke-width="0.3"><path d="
M 275.00 110.00 
L 276.00 110.00
C 276.00 104.00 276.00 98.00 276.00 92.00
C 276.00 74.67 276.00 57.33 276.00 40.00
C 276.00 32.67 276.00 25.33 276.00 18.00
C 276.00 17.50 276.00 17.00 276.00 17.00
C 270.77 24.05 276.82 38.87 275.00 48.00 C 273.18 57.13 275.95 69.30 275.00 79.00 C 274.05 88.70 275.71 100.14 275.00 110.00 Z"/>
</g>
<g fill="None" fill-opacity="0.0" stroke="#7C8D84" stroke-opacity="1.00" stroke-width="0.3"><path d="
M 276.00 18.00 
C 282.54 18.59 289.43 18.00 296.00 18.00
C 290.14 17.43 282.64 16.40 276.00 17.00
C 276.00 17.00 276.00 17.50 276.00 18.00 Z"/>
</g>
<g fill="None" fill-opacity="0.0" stroke="#E5E7E5" stroke-opacity="1.00" stroke-width="0.3"><path d="
M 246.00 110.00 
L 263.00 110.00
C 262.90 103.84 263.13 97.10 263.00 91.00 C 262.87 84.90 263.27 78.98 263.00 73.00 C 262.73 67.02 263.55 59.75 263.00 54.00 C 262.45 48.25 264.27 41.18 263.00 36.00 C 261.73 30.82 265.84 22.06 263.00 18.00
C 257.37 17.62 251.62 18.51 246.00 18.00
C 246.00 48.67 246.00 79.33 246.00 110.00 Z"/>
</g>
<g fill="None" fill-opacity="0.0" stroke="#DBDCDC" stroke-opacity="1.00" stroke-width="0.3"><path d="
M 276.00 40.00 
C 276.36 42.21 278.83 45.09 278.00 48.00
C 279.42 40.97 289.63 41.72 291.00 48.00
C 291.52 44.74 291.41 40.61 293.00 38.00
C 293.11 36.02 293.32 35.45 294.00 34.00
C 294.39 33.18 293.69 31.85 294.00 31.00
C 304.08 31.46 315.82 36.67 314.00 49.00
C 314.36 49.85 313.71 51.12 314.00 52.00
C 318.66 52.12 322.34 49.95 320.00 56.00
C 324.04 55.07 324.67 49.09 328.00 47.00
C 329.54 41.30 328.40 34.91 325.00 30.00
C 322.04 27.37 317.71 28.10 314.00 28.00
C 313.54 24.97 318.27 26.45 319.00 24.00
C 312.39 18.88 304.71 18.00 296.00 18.00
C 289.43 18.00 282.54 18.59 276.00 18.00
C 276.00 25.33 276.00 32.67 276.00 40.00 Z"/>
</g>
<g fill="None" fill-opacity="0.0" stroke="#868686" stroke-opacity="1.00" stroke-width="0.3"><path d="
M 77.00 32.00 
C 77.35 28.35 77.91 23.38 78.00 19.00
C 77.55 22.72 77.00 27.55 77.00 32.00 Z"/>
</g>
<g fill="None" fill-opacity="0.0" stroke="#5C966C" stroke-opacity="1.00" stroke-width="0.3"><path d="
M 345.00 25.00 
C 346.68 23.20 350.03 20.17 352.00 19.00
C 349.54 20.84 346.88 21.91 345.00 25.00 Z"/>
</g>
<g fill="None" fill-opacity="0.0" stroke="#C8DECE" stroke-opacity="1.00" stroke-width="0.3"><path d="
M 325.00 30.00 
C 323.38 27.66 321.28 25.77 319.00 24.00
C 318.27 26.45 313.54 24.97 314.00 28.00
C 317.71 28.10 322.04 27.37 325.00 30.00 Z"/>
</g>
<g fill="None" fill-opacity="0.0" stroke="#E9EBEC" stroke-opacity="1.00" stroke-width="0.3"><path d="
M 120.00 26.00 
C 119.85 26.94 119.07 28.55 119.00 29.00
C 118.37 33.03 118.80 35.82 117.00 40.00
C 113.59 40.85 116.52 35.19 113.00 36.00
C 112.06 39.97 106.87 40.06 107.00 45.00
C 108.79 42.67 112.65 45.82 114.00 47.00
C 115.06 47.93 115.97 48.98 117.00 50.00
C 114.79 50.75 114.43 50.67 113.00 49.00
C 111.32 48.60 109.05 48.20 108.00 52.00
C 106.82 49.86 110.21 47.28 108.00 46.00
C 107.17 46.64 106.41 47.38 105.00 47.00
C 104.85 49.99 106.89 50.23 107.00 53.00
C 102.00 54.41 105.88 60.20 104.00 64.00
C 102.72 64.28 100.50 63.24 100.00 65.00
C 105.93 65.09 106.67 63.57 110.00 69.00
C 110.14 69.22 111.55 68.85 112.00 69.00
C 110.42 62.07 116.43 60.25 116.00 54.00
C 121.16 53.55 122.36 46.75 128.00 48.00
C 123.51 61.07 118.07 73.99 113.00 86.00
C 112.80 86.32 112.03 86.79 112.00 87.00
C 111.37 90.86 110.21 94.31 109.00 98.00
C 107.68 102.02 105.20 105.64 105.00 110.00
L 123.00 110.00
C 125.51 105.20 125.91 98.69 130.00 95.00
C 128.69 100.09 125.75 104.73 125.00 110.00
L 145.00 110.00
C 144.94 108.06 145.46 104.80 148.00 105.00
C 149.59 99.17 143.01 97.66 139.00 96.00
C 146.90 93.08 155.18 96.47 164.00 95.00 C 172.82 93.53 173.18 103.96 176.00 110.00
L 194.00 110.00
C 186.72 88.50 178.07 67.32 170.00 46.00
C 168.98 43.31 167.98 40.65 167.00 38.00
C 164.95 41.47 163.02 39.03 161.00 37.00
C 161.39 42.07 156.98 45.22 154.00 40.00
C 151.05 41.26 147.59 40.73 146.00 43.00
C 143.69 37.41 136.85 41.51 133.00 40.00
C 135.91 38.06 133.79 34.85 134.00 33.00
C 130.65 36.31 130.38 29.22 130.00 27.00
C 126.07 33.60 125.77 21.86 120.00 26.00
M 131.00 41.00 
C 131.38 41.69 129.01 45.05 129.00 46.00
C 128.17 45.59 127.13 45.03 127.00 44.00
C 125.51 43.69 124.02 44.05 123.00 43.00
C 125.09 41.23 128.63 38.13 131.00 41.00
M 150.00 44.00 
C 152.31 45.12 153.69 51.75 154.77 54.23 C 155.85 56.71 158.55 62.54 158.92 65.08 C 159.30 67.61 164.25 75.00 163.00 77.00
C 159.67 82.33 151.20 74.97 145.00 78.00 C 138.80 81.03 134.42 74.12 138.77 69.77 C 143.12 65.42 140.96 59.10 143.93 55.93 C 146.90 52.75 147.10 42.60 150.00 44.00 Z"/>
</g>
<g fill="None" fill-opacity="0.0" stroke="#181C2A" stroke-opacity="1.00" stroke-width="0.3"><path d="
M 107.00 29.00 
C 108.69 30.35 111.24 34.22 113.00 36.00
C 116.52 35.19 113.59 40.85 117.00 40.00
C 118.80 35.82 118.37 33.03 119.00 29.00
C 117.14 25.55 110.82 26.39 107.00 29.00 Z"/>
</g>
<g fill="None" fill-opacity="0.0" stroke="#D4F2DC" stroke-opacity="1.00" stroke-width="0.3"><path d="
M 344.00 27.00 
C 334.75 43.01 347.04 56.04 358.00 67.00
C 362.93 71.93 369.05 75.92 374.25 80.75 C 379.44 85.58 382.87 95.38 375.00 100.00
C 378.88 98.51 381.18 95.28 382.00 91.00
C 384.36 78.73 366.61 76.52 362.26 68.74 C 357.91 60.97 344.20 53.74 343.00 43.00
C 342.28 36.51 345.11 28.80 344.00 27.00 Z"/>
</g>
<g fill="None" fill-opacity="0.0" stroke="#E4E7EB" stroke-opacity="1.00" stroke-width="0.3"><path d="
M 176.00 39.00 
C 177.18 38.57 178.79 39.33 180.00 39.00
C 179.16 40.11 177.54 41.04 176.00 41.00
C 175.75 42.93 177.53 44.17 179.00 45.00
C 179.56 48.24 174.06 48.94 172.00 48.00
C 173.60 50.69 174.07 53.59 176.00 56.00
C 181.52 55.09 180.69 45.48 188.00 47.00
C 188.16 49.64 191.02 51.62 193.00 53.00
C 194.75 51.49 192.43 49.58 191.00 49.00
C 188.53 45.77 183.18 41.40 189.00 41.00
C 184.23 41.78 185.10 38.45 184.00 36.00
C 182.59 36.85 182.28 38.85 180.00 38.00
C 181.18 34.70 176.06 31.88 176.00 28.00
C 172.66 28.94 174.80 33.09 177.00 34.00
C 174.68 35.50 174.94 36.90 176.00 39.00 Z"/>
</g>
<g fill="None" fill-opacity="0.0" stroke="#D0E6D4" stroke-opacity="1.00" stroke-width="0.3"><path d="
M 363.00 32.00 
C 365.67 31.51 368.04 32.47 370.00 33.00
C 374.80 34.30 377.84 36.95 381.00 41.00
C 381.33 41.17 381.77 41.72 382.00 42.00
C 383.01 41.49 385.00 38.92 386.00 38.00
C 389.43 36.44 391.09 31.50 395.00 31.00
C 395.81 29.22 393.55 28.90 393.00 28.00
C 392.62 28.04 384.90 41.22 381.25 36.75 C 377.59 32.28 367.55 27.30 363.00 32.00 Z"/>
</g>
<g fill="None" fill-opacity="0.0" stroke="#A5A7A8" stroke-opacity="1.00" stroke-width="0.3"><path d="
M 89.00 32.00 
C 88.71 36.88 83.94 41.25 83.33 46.33 C 82.71 51.40 80.96 57.53 81.00 62.00
C 81.63 63.86 85.13 66.02 84.00 69.00
C 84.83 61.17 90.03 72.36 90.00 76.00
C 92.55 76.76 95.39 78.14 98.00 79.00
C 97.75 78.80 98.12 77.47 98.00 77.00
C 97.91 76.65 97.30 76.21 97.00 76.00
C 93.21 73.39 94.39 65.21 93.01 60.99 C 91.63 56.77 93.77 46.21 98.00 44.00
C 93.62 37.17 104.13 36.58 105.00 29.00
C 101.02 29.92 92.13 29.63 89.00 32.00 Z"/>
</g>
<g fill="None" fill-opacity="0.0" stroke="#CCCCCD" stroke-opacity="1.00" stroke-width="0.3"><path d="
M 97.00 76.00 
C 95.33 73.06 97.54 67.14 100.00 65.00
C 100.50 63.24 102.72 64.28 104.00 64.00
C 105.88 60.20 102.00 54.41 107.00 53.00
C 106.89 50.23 104.85 49.99 105.00 47.00
C 106.41 47.38 107.17 46.64 108.00 46.00
C 107.77 45.74 107.01 45.34 107.00 45.00
C 106.87 40.06 112.06 39.97 113.00 36.00
C 111.24 34.22 108.69 30.35 107.00 29.00
C 106.66 29.23 105.47 28.89 105.00 29.00
C 104.13 36.58 93.62 37.17 98.00 44.00
C 93.77 46.21 91.63 56.77 93.01 60.99 C 94.39 65.21 93.21 73.39 97.00 76.00
M 103.00 43.00 
C 100.87 42.20 100.17 38.75 103.00 38.00
C 103.33 38.84 104.93 42.03 103.00 43.00 Z"/>
</g>
<g fill="None" fill-opacity="0.0" stroke="#C7C9CE" stroke-opacity="1.00" stroke-width="0.3"><path d="
M 184.00 36.00 
C 185.10 38.45 184.23 41.78 189.00 41.00
C 183.18 41.40 188.53 45.77 191.00 49.00
C 190.55 48.01 189.75 47.23 190.00 46.00
C 194.69 48.18 196.12 52.45 199.00 56.00
C 200.16 54.31 198.05 50.64 202.00 51.00
C 202.35 50.91 202.85 50.34 203.00 50.00
C 203.37 49.16 204.15 46.99 204.00 46.00
C 199.41 44.06 197.28 36.23 197.00 31.00
C 195.65 28.99 196.18 33.42 195.00 34.00
C 190.28 34.30 186.30 35.48 187.00 30.00
C 186.10 31.18 184.11 34.67 184.00 36.00 Z"/>
</g>
<g fill="None" fill-opacity="0.0" stroke="#CCEBD5" stroke-opacity="1.00" stroke-width="0.3"><path d="
M 294.00 34.00 
C 294.05 33.97 303.04 34.86 304.00 35.00
C 304.35 35.05 304.77 35.72 305.00 36.00
C 312.34 38.50 313.63 50.88 306.00 55.00
C 309.25 54.30 313.12 53.18 314.00 49.00
C 315.82 36.67 304.08 31.46 294.00 31.00
C 293.69 31.85 294.39 33.18 294.00 34.00 Z"/>
</g>
<g fill="None" fill-opacity="0.0" stroke="#62A271" stroke-opacity="1.00" stroke-width="0.3"><path d="
M 363.00 33.00 
C 363.71 33.43 366.15 33.00 367.00 33.00
C 367.81 33.00 369.24 32.74 370.00 33.00
C 368.04 32.47 365.67 31.51 363.00 32.00
C 363.00 32.00 363.08 32.99 363.00 33.00 Z"/>
</g>
<g fill="None" fill-opacity="0.0" stroke="#A6AFC7" stroke-opacity="1.00" stroke-width="0.3"><path d="
M 174.00 36.00 
C 173.00 39.64 170.85 32.51 173.00 33.00
C 170.74 33.54 170.88 36.17 171.00 38.00
C 172.27 38.18 173.73 37.33 174.00 36.00 Z"/>
</g>
<g fill="None" fill-opacity="0.0" stroke="#EDF5FE" stroke-opacity="1.00" stroke-width="0.3"><path d="
M 174.00 36.00 
C 174.19 35.09 174.09 33.25 173.00 33.00
C 170.85 32.51 173.00 39.64 174.00 36.00 Z"/>
</g>
<g fill="None" fill-opacity="0.0" stroke="#3B7048" stroke-opacity="1.00" stroke-width="0.3"><path d="
M 359.00 42.00 
C 362.51 52.62 373.77 55.00 381.75 63.25 C 389.72 71.51 397.89 79.91 397.00 93.00
C 396.55 99.58 393.22 105.02 389.00 110.00
L 391.00 110.00
C 403.63 99.60 401.21 78.21 390.25 67.75 C 379.29 57.30 368.48 50.94 360.00 39.00
C 363.59 38.96 364.48 33.90 367.00 33.00
C 366.15 33.00 363.71 33.43 363.00 33.00
C 357.76 33.86 358.55 38.29 359.00 42.00 Z"/>
</g>
<g fill="None" fill-opacity="0.0" stroke="#20652D" stroke-opacity="1.00" stroke-width="0.3"><path d="
M 381.00 41.00 
C 377.84 36.95 374.80 34.30 370.00 33.00
C 373.73 34.26 377.18 39.09 381.00 41.00 Z"/>
</g>
<g fill="None" fill-opacity="0.0" stroke="#286D3B" stroke-opacity="1.00" stroke-width="0.3"><path d="
M 293.00 38.00 
C 292.65 43.98 293.26 50.02 293.00 56.00
C 297.40 55.89 301.95 56.52 306.00 55.00
C 313.63 50.88 312.34 38.50 305.00 36.00
C 309.88 41.99 311.46 47.58 306.00 53.00
C 304.40 49.71 297.95 55.97 296.08 50.92 C 294.21 45.86 297.25 42.03 295.00 37.00
C 297.64 35.36 301.86 37.08 304.00 35.00
C 303.04 34.86 294.05 33.97 294.00 34.00
C 293.32 35.45 293.11 36.02 293.00 38.00 Z"/>
</g>
<g fill="None" fill-opacity="0.0" stroke="#09852F" stroke-opacity="1.00" stroke-width="0.3"><path d="
M 305.00 36.00 
C 304.77 35.72 304.35 35.05 304.00 35.00
C 301.86 37.08 297.64 35.36 295.00 37.00
C 297.25 42.03 294.21 45.86 296.08 50.92 C 297.95 55.97 304.40 49.71 306.00 53.00
C 311.46 47.58 309.88 41.99 305.00 36.00 Z"/>
</g>
<g fill="None" fill-opacity="0.0" stroke="#929292" stroke-opacity="1.00" stroke-width="0.3"><path d="
M 103.00 43.00 
C 104.93 42.03 103.33 38.84 103.00 38.00
C 100.17 38.75 100.87 42.20 103.00 43.00 Z"/>
</g>
<g fill="None" fill-opacity="0.0" stroke="#F1F4F2" stroke-opacity="1.00" stroke-width="0.3"><path d="
M 276.00 40.00 
C 276.00 57.33 276.00 74.67 276.00 92.00
C 276.20 89.97 277.34 86.34 278.00 84.00
C 277.42 91.50 289.63 84.19 288.00 92.00
C 289.33 90.27 289.75 87.38 290.00 85.00
C 293.59 88.13 290.47 94.63 293.00 98.00
C 293.45 94.12 292.40 87.61 293.00 84.00 C 293.60 80.39 290.97 72.59 295.00 72.00
C 295.61 67.48 309.76 73.47 313.00 72.00
C 315.59 74.93 317.45 78.15 318.00 82.00
C 318.08 82.49 318.00 83.00 318.00 83.00
C 318.89 84.24 319.96 86.19 320.00 88.00
C 323.96 88.42 327.23 87.99 330.00 86.00
C 329.54 92.81 331.71 97.46 331.00 102.00
C 340.80 88.76 335.10 67.41 319.00 62.00
C 321.98 57.00 326.40 52.91 328.00 47.00
C 324.67 49.09 324.04 55.07 320.00 56.00
C 322.34 49.95 318.66 52.12 314.00 52.00
C 313.71 51.12 314.36 49.85 314.00 49.00
C 313.12 53.18 309.25 54.30 306.00 55.00
C 301.95 56.52 297.40 55.89 293.00 56.00
C 293.26 50.02 292.65 43.98 293.00 38.00
C 291.41 40.61 291.52 44.74 291.00 48.00
C 289.63 41.72 279.42 40.97 278.00 48.00
C 278.83 45.09 276.36 42.21 276.00 40.00 Z"/>
</g>
<g fill="None" fill-opacity="0.0" stroke="#72A683" stroke-opacity="1.00" stroke-width="0.3"><path d="
M 382.00 42.00 
C 383.10 43.34 383.14 42.01 384.00 41.00
C 384.70 40.18 385.23 38.84 386.00 38.00
C 385.00 38.92 383.01 41.49 382.00 42.00 Z"/>
</g>
<g fill="None" fill-opacity="0.0" stroke="#03090C" stroke-opacity="1.00" stroke-width="0.3"><path d="
M 176.00 41.00 
C 177.54 41.04 179.16 40.11 180.00 39.00
C 178.79 39.33 177.18 38.57 176.00 39.00
C 176.20 39.40 175.92 40.51 176.00 41.00 Z"/>
</g>
<g fill="None" fill-opacity="0.0" stroke="#888B8C" stroke-opacity="1.00" stroke-width="0.3"><path d="
M 127.00 44.00 
C 128.13 43.58 129.17 40.80 131.00 41.00
C 128.63 38.13 125.09 41.23 123.00 43.00
C 124.02 44.05 125.51 43.69 127.00 44.00 Z"/>
</g>
<g fill="None" fill-opacity="0.0" stroke="#1E1F25" stroke-opacity="1.00" stroke-width="0.3"><path d="
M 127.00 44.00 
C 127.13 45.03 128.17 45.59 129.00 46.00
C 129.01 45.05 131.38 41.69 131.00 41.00
C 129.17 40.80 128.13 43.58 127.00 44.00 Z"/>
</g>
<g fill="None" fill-opacity="0.0" stroke="#F3F5F4" stroke-opacity="1.00" stroke-width="0.3"><path d="
M 343.00 43.00 
C 344.20 53.74 357.91 60.97 362.26 68.74 C 366.61 76.52 384.36 78.73 382.00 91.00
C 384.75 86.74 389.35 89.17 393.00 86.00
C 393.59 88.91 391.41 91.06 392.00 94.00
C 392.95 91.10 394.63 90.66 397.00 93.00
C 397.89 79.91 389.72 71.51 381.75 63.25 C 373.77 55.00 362.51 52.62 359.00 42.00
C 356.60 43.64 360.92 45.86 361.00 48.00
C 358.77 46.06 351.10 41.92 355.00 48.00
C 350.47 49.27 348.71 40.91 346.00 47.00
C 346.40 44.74 343.54 44.65 343.00 43.00 Z"/>
</g>
<g fill="None" fill-opacity="0.0" stroke="#4E5B65" stroke-opacity="1.00" stroke-width="0.3"><path d="
M 163.00 77.00 
C 161.71 76.56 160.79 75.42 161.00 74.00
C 155.59 78.36 146.06 74.89 139.00 76.00
C 140.49 64.69 146.90 54.85 150.00 44.00
C 147.10 42.60 146.90 52.75 143.93 55.93 C 140.96 59.10 143.12 65.42 138.77 69.77 C 134.42 74.12 138.80 81.03 145.00 78.00 C 151.20 74.97 159.67 82.33 163.00 77.00 Z"/>
</g>
<g fill="None" fill-opacity="0.0" stroke="#3A3B3D" stroke-opacity="1.00" stroke-width="0.3"><path d="
M 107.00 45.00 
C 107.01 45.34 107.77 45.74 108.00 46.00
C 110.21 47.28 106.82 49.86 108.00 52.00
C 109.05 48.20 111.32 48.60 113.00 49.00
C 113.23 48.82 114.13 47.32 114.00 47.00
C 112.65 45.82 108.79 42.67 107.00 45.00 Z"/>
</g>
<g fill="None" fill-opacity="0.0" stroke="#112B48" stroke-opacity="1.00" stroke-width="0.3"><path d="
M 163.00 77.00 
C 164.25 75.00 159.30 67.61 158.92 65.08 C 158.55 62.54 155.85 56.71 154.77 54.23 C 153.69 51.75 152.31 45.12 150.00 44.00
C 146.90 54.85 140.49 64.69 139.00 76.00
C 146.06 74.89 155.59 78.36 161.00 74.00
C 160.79 75.42 161.71 76.56 163.00 77.00 Z"/>
</g>
<g fill="None" fill-opacity="0.0" stroke="#161B2C" stroke-opacity="1.00" stroke-width="0.3"><path d="
M 204.00 46.00 
C 204.15 46.99 203.37 49.16 203.00 50.00
C 206.48 50.93 210.11 49.97 214.00 51.00
C 214.53 48.32 210.52 47.66 211.00 45.00
C 207.92 45.52 207.26 47.38 204.00 46.00 Z"/>
</g>
<g fill="None" fill-opacity="0.0" stroke="#595959" stroke-opacity="1.00" stroke-width="0.3"><path d="
M 194.00 110.00 
L 196.00 110.00
C 194.25 106.47 193.33 102.64 192.00 99.00
C 190.76 95.61 189.24 92.36 188.00 89.00
C 184.18 78.65 177.79 67.93 176.00 57.00
C 175.92 56.51 176.00 56.00 176.00 56.00
C 174.07 53.59 173.60 50.69 172.00 48.00
C 171.42 47.03 170.63 46.80 170.00 46.00
C 178.07 67.32 186.72 88.50 194.00 110.00 Z"/>
</g>
<g fill="None" fill-opacity="0.0" stroke="#1D2638" stroke-opacity="1.00" stroke-width="0.3"><path d="
M 191.00 49.00 
C 192.43 49.58 194.75 51.49 193.00 53.00
C 191.02 51.62 188.16 49.64 188.00 47.00
C 180.69 45.48 181.52 55.09 176.00 56.00
C 176.00 56.00 175.92 56.51 176.00 57.00
C 179.91 57.26 184.27 55.73 188.00 55.00
C 188.19 59.42 189.66 60.18 193.00 63.00
C 195.97 64.04 195.94 59.97 199.00 61.00
C 201.54 61.04 205.96 65.21 209.00 63.00
C 208.46 60.73 210.52 59.23 210.00 57.00
C 205.99 57.96 200.66 56.02 202.00 51.00
C 198.05 50.64 200.16 54.31 199.00 56.00
C 196.12 52.45 194.69 48.18 190.00 46.00
C 189.75 47.23 190.55 48.01 191.00 49.00
M 194.00 54.00 
C 191.55 58.77 187.88 52.63 194.00 54.00 Z"/>
</g>
<g fill="None" fill-opacity="0.0" stroke="#75777B" stroke-opacity="1.00" stroke-width="0.3"><path d="
M 113.00 49.00 
C 114.43 50.67 114.79 50.75 117.00 50.00
C 115.97 48.98 115.06 47.93 114.00 47.00
C 114.13 47.32 113.23 48.82 113.00 49.00 Z"/>
</g>
<g fill="None" fill-opacity="0.0" stroke="#12263E" stroke-opacity="1.00" stroke-width="0.3"><path d="
M 112.00 69.00 
C 112.40 70.77 114.79 70.19 112.00 72.00
C 113.41 72.14 115.51 73.67 116.00 75.00
C 113.81 75.76 112.68 73.70 111.00 73.00
C 110.01 73.12 108.99 72.91 108.00 73.00
C 108.42 70.90 111.94 71.32 110.00 69.00
C 106.67 63.57 105.93 65.09 100.00 65.00
C 97.54 67.14 95.33 73.06 97.00 76.00
C 97.30 76.21 97.91 76.65 98.00 77.00
C 101.27 77.48 102.09 73.50 105.00 73.00
C 101.18 79.42 110.30 78.05 107.00 84.00
C 108.77 85.45 111.22 84.57 113.00 86.00
C 118.07 73.99 123.51 61.07 128.00 48.00
C 122.36 46.75 121.16 53.55 116.00 54.00
C 116.43 60.25 110.42 62.07 112.00 69.00 Z"/>
</g>
<g fill="None" fill-opacity="0.0" stroke="#767676" stroke-opacity="1.00" stroke-width="0.3"><path d="
M 76.00 60.00 
C 76.16 58.30 76.95 55.41 77.00 53.00
C 76.84 54.70 76.05 57.59 76.00 60.00 Z"/>
</g>
<g fill="None" fill-opacity="0.0" stroke="#5E5E5E" stroke-opacity="1.00" stroke-width="0.3"><path d="
M 70.00 54.00 
C 67.81 55.70 69.56 59.48 69.00 62.00
C 71.19 60.30 69.44 56.52 70.00 54.00 Z"/>
</g>
<g fill="None" fill-opacity="0.0" stroke="#717E8F" stroke-opacity="1.00" stroke-width="0.3"><path d="
M 194.00 54.00 
C 187.88 52.63 191.55 58.77 194.00 54.00 Z"/>
</g>
<g fill="None" fill-opacity="0.0" stroke="#EAEBEC" stroke-opacity="1.00" stroke-width="0.3"><path d="
M 176.00 57.00 
C 177.79 67.93 184.18 78.65 188.00 89.00
C 188.21 87.91 190.55 85.62 192.00 86.00
C 186.28 84.28 194.68 83.88 190.00 81.00
C 198.11 78.11 192.87 65.58 199.00 61.00
C 195.94 59.97 195.97 64.04 193.00 63.00
C 189.66 60.18 188.19 59.42 188.00 55.00
C 184.27 55.73 179.91 57.26 176.00 57.00 Z"/>
</g>
<g fill="None" fill-opacity="0.0" stroke="#BFC1C1" stroke-opacity="1.00" stroke-width="0.3"><path d="
M 188.00 89.00 
C 189.24 92.36 190.76 95.61 192.00 99.00
C 201.81 95.52 200.43 77.47 208.00 70.00
C 202.43 72.18 202.82 68.26 208.00 68.00
C 207.75 67.71 208.00 67.00 208.00 67.00
C 207.00 67.00 206.00 67.00 205.00 67.00
C 204.22 63.97 208.14 64.53 209.00 63.00
C 205.96 65.21 201.54 61.04 199.00 61.00
C 192.87 65.58 198.11 78.11 190.00 81.00
C 194.68 83.88 186.28 84.28 192.00 86.00
C 190.55 85.62 188.21 87.91 188.00 89.00 Z"/>
</g>
<g fill="None" fill-opacity="0.0" stroke="#121F2C" stroke-opacity="1.00" stroke-width="0.3"><path d="
M 85.00 91.00 
C 84.03 86.43 85.85 79.72 85.00 75.00
C 86.40 76.21 88.26 75.98 90.00 76.00
C 90.03 72.36 84.83 61.17 84.00 69.00
C 85.13 66.02 81.63 63.86 81.00 62.00
C 81.09 72.10 81.34 81.89 85.00 91.00 Z"/>
</g>
<g fill="None" fill-opacity="0.0" stroke="#44464A" stroke-opacity="1.00" stroke-width="0.3"><path d="
M 222.00 68.00 
C 222.15 66.76 222.09 65.25 222.00 64.00
C 222.00 63.89 219.67 64.56 220.08 65.92 C 220.50 67.27 221.97 67.34 222.00 68.00 Z"/>
</g>
<g fill="None" fill-opacity="0.0" stroke="#181A24" stroke-opacity="1.00" stroke-width="0.3"><path d="
M 208.00 67.00 
C 208.00 67.00 207.75 67.71 208.00 68.00
C 212.11 71.55 209.61 79.25 215.00 82.00
C 215.84 79.15 209.72 65.21 208.00 67.00 Z"/>
</g>
<g fill="None" fill-opacity="0.0" stroke="#848484" stroke-opacity="1.00" stroke-width="0.3"><path d="
M 71.00 90.00 
C 71.56 91.77 73.95 90.63 75.00 92.00
C 76.53 89.67 75.95 86.72 76.00 84.00
C 73.43 85.26 76.50 89.67 74.00 91.00
C 73.20 83.35 77.02 75.03 74.00 68.00
C 72.68 72.74 75.88 88.41 71.00 90.00 Z"/>
</g>
<g fill="None" fill-opacity="0.0" stroke="#4C5F79" stroke-opacity="1.00" stroke-width="0.3"><path d="
M 111.00 73.00 
C 110.90 72.78 111.69 72.20 112.00 72.00
C 114.79 70.19 112.40 70.77 112.00 69.00
C 111.55 68.85 110.14 69.22 110.00 69.00
C 111.94 71.32 108.42 70.90 108.00 73.00
C 108.99 72.91 110.01 73.12 111.00 73.00 Z"/>
</g>
<g fill="None" fill-opacity="0.0" stroke="#D7F8E2" stroke-opacity="1.00" stroke-width="0.3"><path d="
M 295.00 72.00 
C 295.49 71.93 296.00 72.00 296.00 72.00
C 298.94 72.00 301.74 72.58 304.00 73.00
C 306.18 73.16 307.99 73.26 310.00 74.00
C 314.16 75.53 315.59 79.00 318.00 82.00
C 317.45 78.15 315.59 74.93 313.00 72.00
C 309.76 73.47 295.61 67.48 295.00 72.00 Z"/>
</g>
<g fill="None" fill-opacity="0.0" stroke="#A7BFD4" stroke-opacity="1.00" stroke-width="0.3"><path d="
M 111.00 73.00 
C 112.68 73.70 113.81 75.76 116.00 75.00
C 115.51 73.67 113.41 72.14 112.00 72.00
C 111.69 72.20 110.90 72.78 111.00 73.00 Z"/>
</g>
<g fill="None" fill-opacity="0.0" stroke="#2C6A3D" stroke-opacity="1.00" stroke-width="0.3"><path d="
M 293.00 98.00 
C 296.63 97.67 300.35 98.20 304.00 98.00
C 312.61 97.53 319.84 93.15 318.00 83.00
C 316.36 86.47 315.70 91.30 314.00 95.00
C 309.56 93.70 299.68 99.22 295.78 95.22 C 291.88 91.22 297.08 79.06 295.00 74.00
C 299.99 73.12 306.11 75.34 310.00 74.00
C 307.99 73.26 306.18 73.16 304.00 73.00
C 301.11 72.79 298.20 73.63 296.00 72.00
C 296.00 72.00 295.49 71.93 295.00 72.00
C 290.97 72.59 293.60 80.39 293.00 84.00 C 292.40 87.61 293.45 94.12 293.00 98.00 Z"/>
</g>
<g fill="None" fill-opacity="0.0" stroke="#72B382" stroke-opacity="1.00" stroke-width="0.3"><path d="
M 304.00 73.00 
C 301.74 72.58 298.94 72.00 296.00 72.00
C 298.20 73.63 301.11 72.79 304.00 73.00 Z"/>
</g>
<g fill="None" fill-opacity="0.0" stroke="#B9C7D4" stroke-opacity="1.00" stroke-width="0.3"><path d="
M 98.00 77.00 
C 98.12 77.47 97.75 78.80 98.00 79.00
C 103.65 80.86 106.18 87.16 112.00 87.00
C 112.03 86.79 112.80 86.32 113.00 86.00
C 111.22 84.57 108.77 85.45 107.00 84.00
C 110.30 78.05 101.18 79.42 105.00 73.00
C 102.09 73.50 101.27 77.48 98.00 77.00 Z"/>
</g>
<g fill="None" fill-opacity="0.0" stroke="#5A5A5A" stroke-opacity="1.00" stroke-width="0.3"><path d="
M 71.00 74.00 
C 69.13 76.68 69.77 76.98 68.00 74.00
C 68.48 78.28 66.94 83.13 69.00 87.00
C 70.69 83.40 71.04 78.42 71.00 74.00 Z"/>
</g>
<g fill="None" fill-opacity="0.0" stroke="#0A842E" stroke-opacity="1.00" stroke-width="0.3"><path d="
M 318.00 83.00 
C 318.00 83.00 318.08 82.49 318.00 82.00
C 315.59 79.00 314.16 75.53 310.00 74.00
C 306.11 75.34 299.99 73.12 295.00 74.00
C 297.08 79.06 291.88 91.22 295.78 95.22 C 299.68 99.22 309.56 93.70 314.00 95.00
C 315.70 91.30 316.36 86.47 318.00 83.00 Z"/>
</g>
<g fill="None" fill-opacity="0.0" stroke="#0F3652" stroke-opacity="1.00" stroke-width="0.3"><path d="
M 85.00 91.00 
C 87.47 97.15 91.13 102.83 95.00 108.00
C 94.88 105.81 94.97 104.80 93.00 102.00
C 99.34 101.60 106.47 96.94 107.00 91.00
C 108.20 93.09 107.18 96.45 109.00 98.00
C 110.21 94.31 111.37 90.86 112.00 87.00
C 106.18 87.16 103.65 80.86 98.00 79.00
C 95.39 78.14 92.55 76.76 90.00 76.00
C 88.26 75.98 86.40 76.21 85.00 75.00
C 85.85 79.72 84.03 86.43 85.00 91.00 Z"/>
</g>
<g fill="None" fill-opacity="0.0" stroke="#0D101D" stroke-opacity="1.00" stroke-width="0.3"><path d="
M 219.00 85.00 
C 219.34 83.95 219.65 83.03 220.00 82.00
C 218.06 81.88 214.76 82.60 215.00 85.00
C 216.33 85.00 217.67 85.00 219.00 85.00 Z"/>
</g>
<g fill="None" fill-opacity="0.0" stroke="#D0E7D8" stroke-opacity="1.00" stroke-width="0.3"><path d="
M 304.00 98.00 
C 300.83 98.51 296.85 99.35 293.00 99.00
C 295.57 103.76 305.68 100.29 310.07 100.07 C 314.47 99.85 320.10 92.63 320.00 88.00
C 319.96 86.19 318.89 84.24 318.00 83.00
C 319.84 93.15 312.61 97.53 304.00 98.00 Z"/>
</g>
<g fill="None" fill-opacity="0.0" stroke="#DBDBDB" stroke-opacity="1.00" stroke-width="0.3"><path d="
M 276.00 92.00 
C 276.00 98.00 276.00 104.00 276.00 110.00
L 324.00 110.00
C 325.91 107.10 328.94 104.88 331.00 102.00
C 331.71 97.46 329.54 92.81 330.00 86.00
C 327.23 87.99 323.96 88.42 320.00 88.00
C 320.10 92.63 314.47 99.85 310.07 100.07 C 305.68 100.29 295.57 103.76 293.00 99.00
C 292.79 98.61 293.00 98.00 293.00 98.00
C 290.47 94.63 293.59 88.13 290.00 85.00
C 289.75 87.38 289.33 90.27 288.00 92.00
C 289.63 84.19 277.42 91.50 278.00 84.00
C 277.34 86.34 276.20 89.97 276.00 92.00 Z"/>
</g>
<g fill="None" fill-opacity="0.0" stroke="#D9DBD9" stroke-opacity="1.00" stroke-width="0.3"><path d="
M 382.00 91.00 
C 381.18 95.28 378.88 98.51 375.00 100.00
C 365.68 104.09 356.09 97.31 352.00 89.00
C 347.55 89.48 343.76 93.07 340.00 95.00
C 337.14 98.82 345.77 105.64 347.00 110.00
L 389.00 110.00
C 393.22 105.02 396.55 99.58 397.00 93.00
C 394.63 90.66 392.95 91.10 392.00 94.00
C 391.41 91.06 393.59 88.91 393.00 86.00
C 389.35 89.17 384.75 86.74 382.00 91.00
M 348.00 105.00 
C 344.06 105.59 340.64 100.04 342.00 97.00
C 344.62 98.98 349.38 100.18 348.00 105.00 Z"/>
</g>
<g fill="None" fill-opacity="0.0" stroke="#165075" stroke-opacity="1.00" stroke-width="0.3"><path d="
M 95.00 108.00 
C 95.39 108.53 95.49 109.49 96.00 110.00
L 105.00 110.00
C 105.20 105.64 107.68 102.02 109.00 98.00
C 107.18 96.45 108.20 93.09 107.00 91.00
C 106.47 96.94 99.34 101.60 93.00 102.00
C 94.97 104.80 94.88 105.81 95.00 108.00 Z"/>
</g>
<g fill="None" fill-opacity="0.0" stroke="#525150" stroke-opacity="1.00" stroke-width="0.3"><path d="
M 123.00 110.00 
L 125.00 110.00
C 125.75 104.73 128.69 100.09 130.00 95.00
C 125.91 98.69 125.51 105.20 123.00 110.00 Z"/>
</g>
<g fill="None" fill-opacity="0.0" stroke="#144A6E" stroke-opacity="1.00" stroke-width="0.3"><path d="
M 145.00 110.00 
L 176.00 110.00
C 173.18 103.96 172.82 93.53 164.00 95.00 C 155.18 96.47 146.90 93.08 139.00 96.00
C 143.01 97.66 149.59 99.17 148.00 105.00
C 145.46 104.80 144.94 108.06 145.00 110.00 Z"/>
</g>
<g fill="None" fill-opacity="0.0" stroke="#1C2529" stroke-opacity="1.00" stroke-width="0.3"><path d="
M 210.00 105.00 
C 212.11 101.80 213.51 98.41 215.00 95.00
C 213.65 96.62 210.43 98.53 208.93 100.92 C 207.44 103.31 209.67 106.68 210.00 105.00 Z"/>
</g>
<g fill="None" fill-opacity="0.0" stroke="#C2E8CF" stroke-opacity="1.00" stroke-width="0.3"><path d="
M 336.00 97.00 
C 338.70 101.30 341.65 105.91 345.00 110.00
L 347.00 110.00
C 345.77 105.64 337.14 98.82 340.00 95.00
C 338.57 95.73 337.10 96.09 336.00 97.00 Z"/>
</g>
<g fill="None" fill-opacity="0.0" stroke="#1E2529" stroke-opacity="1.00" stroke-width="0.3"><path d="
M 206.00 96.00 
C 201.57 96.33 206.16 101.05 206.00 96.00 Z"/>
</g>
<g fill="None" fill-opacity="0.0" stroke="#1A7E33" stroke-opacity="1.00" stroke-width="0.3"><path d="
M 327.00 110.00 
L 345.00 110.00
C 341.65 105.91 338.70 101.30 336.00 97.00
C 332.15 100.18 329.90 106.27 327.00 110.00 Z"/>
</g>
<g fill="None" fill-opacity="0.0" stroke="#E2D5E2" stroke-opacity="1.00" stroke-width="0.3"><path d="
M 348.00 105.00 
C 349.38 100.18 344.62 98.98 342.00 97.00
C 340.64 100.04 344.06 105.59 348.00 105.00 Z"/>
</g>
<g fill="None" fill-opacity="0.0" stroke="#8AAB93" stroke-opacity="1.00" stroke-width="0.3"><path d="
M 293.00 99.00 
C 296.85 99.35 300.83 98.51 304.00 98.00
C 300.35 98.20 296.63 97.67 293.00 98.00
C 293.00 98.00 292.79 98.61 293.00 99.00 Z"/>
</g>
<g fill="None" fill-opacity="0.0" stroke="#6C7073" stroke-opacity="1.00" stroke-width="0.3"><path d="
M 202.00 100.00 
C 199.11 103.91 203.21 106.27 202.00 100.00 Z"/>
</g>
<g fill="#FDFDFD" fill-opacity="1.00" stroke="None">
<path d="
M 0.00 110.00 
L 96.00 110.00
C 95.49 109.49 95.39 108.53 95.00 108.00
C 91.13 102.83 87.47 97.15 85.00 91.00
C 81.34 81.89 81.09 72.10 81.00 62.00
C 80.96 57.53 82.71 51.40 83.33 46.33 C 83.94 41.25 88.71 36.88 89.00 32.00
C 89.41 25.12 83.10 18.20 84.00 11.00
C 78.99 10.99 76.80 13.84 78.00 19.00
C 77.91 23.38 77.35 28.35 77.00 32.00
C 77.00 39.00 77.14 46.01 77.00 53.00
C 76.95 55.41 76.16 58.30 76.00 60.00
C 75.84 68.00 76.16 76.00 76.00 84.00
C 75.95 86.72 76.53 89.67 75.00 92.00
C 73.95 90.63 71.56 91.77 71.00 90.00
C 58.85 84.95 67.20 66.58 66.00 55.00 C 64.80 43.42 68.01 26.84 68.00 15.00
C 57.75 17.90 47.13 19.64 37.00 23.00
C 42.25 12.62 57.25 9.07 65.00 0.00
L 0.00 0.00
L 0.00 110.00 Z"/>
</g>
<g fill="#111111" fill-opacity="1.00" stroke="None">
<path d="
M 71.00 90.00 
C 75.88 88.41 72.68 72.74 74.00 68.00
C 77.02 75.03 73.20 83.35 74.00 91.00
C 76.50 89.67 73.43 85.26 76.00 84.00
C 76.16 76.00 75.84 68.00 76.00 60.00
C 76.05 57.59 76.84 54.70 77.00 53.00
C 77.14 46.01 77.00 39.00 77.00 32.00
C 77.00 27.55 77.55 22.72 78.00 19.00
C 76.80 13.84 78.99 10.99 84.00 11.00
C 83.10 18.20 89.41 25.12 89.00 32.00
C 92.13 29.63 101.02 29.92 105.00 29.00
C 105.47 28.89 106.66 29.23 107.00 29.00
C 110.82 26.39 117.14 25.55 119.00 29.00
C 119.07 28.55 119.85 26.94 120.00 26.00
C 120.21 24.70 119.84 23.31 120.00 22.00
C 123.70 21.46 126.74 18.91 131.00 20.00
C 131.00 18.67 131.00 17.33 131.00 16.00
C 126.66 18.06 121.54 13.72 117.00 13.00
C 125.56 11.78 132.22 6.40 138.00 0.00
L 65.00 0.00
C 57.25 9.07 42.25 12.62 37.00 23.00
C 47.13 19.64 57.75 17.90 68.00 15.00
C 68.01 26.84 64.80 43.42 66.00 55.00 C 67.20 66.58 58.85 84.95 71.00 90.00
M 70.00 54.00 
C 69.44 56.52 71.19 60.30 69.00 62.00
C 69.56 59.48 67.81 55.70 70.00 54.00
M 71.00 74.00 
C 71.04 78.42 70.69 83.40 69.00 87.00
C 66.94 83.13 68.48 78.28 68.00 74.00
C 69.77 76.98 69.13 76.68 71.00 74.00 Z"/>
</g>
<g fill="#333333" fill-opacity="1.00" stroke="None">
<path d="
M 131.00 20.00 
C 132.79 19.31 133.18 17.51 134.00 16.00
C 136.41 20.17 136.17 17.14 139.00 16.00
C 143.43 12.46 148.13 8.03 152.00 4.00
C 153.09 2.87 154.14 1.26 155.00 0.00
L 138.00 0.00
C 132.22 6.40 125.56 11.78 117.00 13.00
C 121.54 13.72 126.66 18.06 131.00 16.00
C 131.00 17.33 131.00 18.67 131.00 20.00 Z"/>
</g>
<g fill="#999EA5" fill-opacity="1.00" stroke="None">
<path d="
M 152.00 4.00 
C 152.10 3.82 151.40 5.97 151.00 7.00
C 152.84 6.75 157.66 6.65 157.00 11.00
C 157.46 10.87 158.74 11.25 159.00 11.00
C 160.41 9.67 159.39 9.14 162.00 11.00
C 162.00 9.67 162.00 8.33 162.00 7.00
C 162.54 5.10 162.78 2.31 164.00 0.00
L 155.00 0.00
C 154.14 1.26 153.09 2.87 152.00 4.00 Z"/>
</g>
<g fill="#3D4D76" fill-opacity="1.00" stroke="None">
<path d="
M 162.00 7.00 
C 161.98 6.90 166.69 10.16 166.00 13.00
C 167.15 8.94 173.13 15.71 173.00 10.00
C 177.53 14.52 185.09 8.51 187.00 15.00
C 187.04 11.91 186.40 10.15 190.00 12.00
C 191.47 11.97 193.88 10.85 195.00 11.00
C 189.77 6.35 183.19 2.80 177.00 0.00
L 164.00 0.00
C 162.78 2.31 162.54 5.10 162.00 7.00 Z"/>
</g>
<g fill="#F6F8F7" fill-opacity="1.00" stroke="None">
<path d="
M 195.00 11.00 
C 211.39 25.57 220.47 42.37 222.00 64.00
C 222.09 65.25 222.15 66.76 222.00 68.00
C 221.48 72.26 221.41 77.88 220.00 82.00
C 219.65 83.03 219.34 83.95 219.00 85.00
C 217.87 88.49 216.35 91.90 215.00 95.00
C 213.51 98.41 212.11 101.80 210.00 105.00
C 208.91 106.65 206.95 107.89 207.00 110.00
L 218.00 110.00
C 218.35 100.71 226.56 94.28 227.92 84.92 C 229.28 75.57 231.76 61.96 229.01 52.99 C 226.25 44.02 224.97 34.43 219.25 27.75 C 213.52 21.08 212.32 11.12 204.00 10.00
C 202.46 5.06 198.42 4.17 196.00 0.00
L 177.00 0.00
C 183.19 2.80 189.77 6.35 195.00 11.00 Z"/>
</g>
<g fill="#D2F4DB" fill-opacity="1.00" stroke="None">
<path d="
M 218.00 110.00 
L 219.00 110.00
C 238.06 80.33 234.55 41.30 213.00 14.00
C 210.01 10.77 206.18 6.94 203.00 4.00
C 201.30 2.66 199.37 1.41 198.00 0.00
L 196.00 0.00
C 198.42 4.17 202.46 5.06 204.00 10.00
C 212.32 11.12 213.52 21.08 219.25 27.75 C 224.97 34.43 226.25 44.02 229.01 52.99 C 231.76 61.96 229.28 75.57 227.92 84.92 C 226.56 94.28 218.35 100.71 218.00 110.00 Z"/>
</g>
<g fill="#06842E" fill-opacity="1.00" stroke="None">
<path d="
M 203.00 4.00 
C 206.66 6.89 210.15 10.39 213.00 14.00
C 234.55 41.30 238.06 80.33 219.00 110.00
L 244.00 110.00
C 243.03 95.58 245.29 82.56 244.00 68.00 C 242.71 53.44 246.47 41.08 244.00 26.00 C 241.53 10.92 266.42 10.01 265.00 25.00 C 263.58 39.99 265.73 52.39 265.00 67.00 C 264.27 81.61 265.54 95.46 265.00 110.00
L 274.00 110.00
C 274.07 103.82 273.91 97.13 274.00 91.00 C 274.09 84.87 273.83 77.94 274.00 72.00 C 274.17 66.06 273.63 58.48 274.00 53.00 C 274.37 47.52 273.18 38.46 274.00 34.00 C 274.82 29.54 271.36 16.99 276.00 16.00
C 286.31 15.07 300.89 15.34 310.22 17.78 C 319.55 20.22 326.36 24.45 329.97 34.03 C 333.59 43.60 325.18 54.97 324.00 63.00
C 335.70 68.72 339.30 82.86 337.00 94.00
C 345.11 89.80 352.67 83.91 357.92 94.08 C 363.18 104.24 382.11 96.79 378.00 86.00
C 373.88 84.43 372.57 80.17 368.32 77.68 C 364.07 75.19 360.64 71.00 358.00 67.00
C 347.04 56.04 334.75 43.01 344.00 27.00
C 344.37 26.36 344.63 25.60 345.00 25.00
C 346.88 21.91 349.54 20.84 352.00 19.00
C 355.17 16.62 353.60 16.79 358.00 17.00
C 358.50 16.79 359.61 16.30 360.00 16.00
C 366.76 10.85 375.42 16.27 383.00 16.00
C 384.39 21.85 394.19 22.52 395.77 28.23 C 397.35 33.94 386.92 38.00 384.00 41.00
C 383.14 42.01 383.10 43.34 382.00 42.00
C 381.77 41.72 381.33 41.17 381.00 41.00
C 377.18 39.09 373.73 34.26 370.00 33.00
C 369.24 32.74 367.81 33.00 367.00 33.00
C 364.48 33.90 363.59 38.96 360.00 39.00
C 368.48 50.94 379.29 57.30 390.25 67.75 C 401.21 78.21 403.63 99.60 391.00 110.00
L 419.00 110.00
C 419.00 73.33 419.00 36.67 419.00 0.00
L 198.00 0.00
C 199.37 1.41 201.30 2.66 203.00 4.00 Z"/>
</g>
<g fill="#A4E2BA" fill-opacity="1.00" stroke="None">
<path d="
M 419.00 110.00 
L 420.00 110.00
C 420.00 73.33 420.00 36.67 420.00 0.00
L 419.00 0.00
C 419.00 36.67 419.00 73.33 419.00 110.00 Z"/>
</g>
<g fill="#E6FFF4" fill-opacity="1.00" stroke="None">
<path d="
M 420.00 110.00 
L 421.00 110.00
C 421.00 73.33 421.00 36.67 421.00 0.00
L 420.00 0.00
C 420.00 36.67 420.00 73.33 420.00 110.00 Z"/>
</g>
<g fill="#FEFEFE" fill-opacity="1.00" stroke="None">
<path d="
M 421.00 110.00 
L 459.00 110.00
L 459.00 0.00
L 421.00 0.00
C 421.00 36.67 421.00 73.33 421.00 110.00 Z"/>
</g>
<g fill="#D5D6D7" fill-opacity="1.00" stroke="None">
<path d="
M 139.00 16.00 
C 137.45 18.79 134.44 29.11 134.00 33.00
C 133.79 34.85 135.91 38.06 133.00 40.00
C 136.85 41.51 143.69 37.41 146.00 43.00
C 147.59 40.73 151.05 41.26 154.00 40.00
C 156.98 45.22 161.39 42.07 161.00 37.00
C 163.02 39.03 164.95 41.47 167.00 38.00
C 164.95 32.44 163.17 24.96 160.00 20.00
C 155.67 15.13 146.56 20.27 141.00 17.00
C 144.09 14.81 149.16 16.57 153.00 16.00
C 154.09 15.66 155.03 14.54 156.00 14.00
C 156.56 12.93 155.27 11.50 157.00 11.00
C 157.66 6.65 152.84 6.75 151.00 7.00
C 151.40 5.97 152.10 3.82 152.00 4.00
C 148.13 8.03 143.43 12.46 139.00 16.00 Z"/>
</g>
<g fill="#7AB98D" fill-opacity="1.00" stroke="None">
<path d="
M 213.00 14.00 
C 210.15 10.39 206.66 6.89 203.00 4.00
C 206.18 6.94 210.01 10.77 213.00 14.00 Z"/>
</g>
<g fill="#26324F" fill-opacity="1.00" stroke="None">
<path d="
M 162.00 7.00 
C 162.00 8.33 162.00 9.67 162.00 11.00
C 159.39 9.14 160.41 9.67 159.00 11.00
C 163.43 11.74 157.04 13.43 156.00 14.00
C 155.03 14.54 154.09 15.66 153.00 16.00
C 156.35 16.41 158.27 17.29 160.00 20.00
C 163.17 24.96 164.95 32.44 167.00 38.00
C 167.98 40.65 168.98 43.31 170.00 46.00
C 170.63 46.80 171.42 47.03 172.00 48.00
C 174.06 48.94 179.56 48.24 179.00 45.00
C 177.53 44.17 175.75 42.93 176.00 41.00
C 175.92 40.51 176.20 39.40 176.00 39.00
C 174.94 36.90 174.68 35.50 177.00 34.00
C 174.80 33.09 172.66 28.94 176.00 28.00
C 176.06 31.88 181.18 34.70 180.00 38.00
C 182.28 38.85 182.59 36.85 184.00 36.00
C 184.11 34.67 186.10 31.18 187.00 30.00
C 186.30 35.48 190.28 34.30 195.00 34.00
C 196.18 33.42 195.65 28.99 197.00 31.00
C 196.87 28.63 196.84 26.44 202.00 27.00
C 198.05 25.59 192.23 24.16 197.00 18.00
C 194.55 18.87 190.40 22.96 193.00 26.00
C 192.92 27.48 192.49 29.54 191.00 32.00
C 187.90 30.63 187.58 26.65 183.00 29.00
C 180.68 23.55 186.24 20.16 190.00 17.00
C 189.80 15.49 188.32 13.31 190.00 12.00
C 186.40 10.15 187.04 11.91 187.00 15.00
C 185.09 8.51 177.53 14.52 173.00 10.00
C 173.13 15.71 167.15 8.94 166.00 13.00
C 166.69 10.16 161.98 6.90 162.00 7.00
M 161.00 17.00 
C 162.33 18.17 168.70 15.67 167.19 19.25 C 165.69 22.83 159.62 20.74 161.00 17.00
M 174.00 36.00 
C 173.73 37.33 172.27 38.18 171.00 38.00
C 170.88 36.17 170.74 33.54 173.00 33.00
C 174.09 33.25 174.19 35.09 174.00 36.00 Z"/>
</g>
<g fill="#BAC0D9" fill-opacity="1.00" stroke="None">
<path d="
M 156.00 14.00 
C 157.04 13.43 163.43 11.74 159.00 11.00
C 158.74 11.25 157.46 10.87 157.00 11.00
C 155.27 11.50 156.56 12.93 156.00 14.00 Z"/>
</g>
<g fill="#96999C" fill-opacity="1.00" stroke="None">
<path d="
M 190.00 12.00 
C 188.32 13.31 189.80 15.49 190.00 17.00
C 190.19 18.42 191.54 19.48 190.35 21.70 C 189.16 23.91 192.59 24.70 193.00 26.00
C 190.40 22.96 194.55 18.87 197.00 18.00
C 192.23 24.16 198.05 25.59 202.00 27.00
C 196.84 26.44 196.87 28.63 197.00 31.00
C 197.28 36.23 199.41 44.06 204.00 46.00
C 207.26 47.38 207.92 45.52 211.00 45.00
C 210.52 47.66 214.53 48.32 214.00 51.00
C 210.11 49.97 206.48 50.93 203.00 50.00
C 202.85 50.34 202.35 50.91 202.00 51.00
C 200.66 56.02 205.99 57.96 210.00 57.00
C 210.52 59.23 208.46 60.73 209.00 63.00
C 208.14 64.53 204.22 63.97 205.00 67.00
C 206.00 67.00 207.00 67.00 208.00 67.00
C 209.72 65.21 215.84 79.15 215.00 82.00
C 209.61 79.25 212.11 71.55 208.00 68.00
C 202.82 68.26 202.43 72.18 208.00 70.00
C 200.43 77.47 201.81 95.52 192.00 99.00
C 193.33 102.64 194.25 106.47 196.00 110.00
L 207.00 110.00
C 206.95 107.89 208.91 106.65 210.00 105.00
C 209.67 106.68 207.44 103.31 208.93 100.92 C 210.43 98.53 213.65 96.62 215.00 95.00
C 216.35 91.90 217.87 88.49 219.00 85.00
C 217.67 85.00 216.33 85.00 215.00 85.00
C 214.76 82.60 218.06 81.88 220.00 82.00
C 221.41 77.88 221.48 72.26 222.00 68.00
C 221.97 67.34 220.50 67.27 220.08 65.92 C 219.67 64.56 222.00 63.89 222.00 64.00
C 220.47 42.37 211.39 25.57 195.00 11.00
C 193.88 10.85 191.47 11.97 190.00 12.00
M 206.00 96.00 
C 206.16 101.05 201.57 96.33 206.00 96.00
M 202.00 100.00 
C 203.21 106.27 199.11 103.91 202.00 100.00 Z"/>
</g>
<g fill="#345E3F" fill-opacity="1.00" stroke="None">
<path d="
M 360.00 16.00 
C 370.99 12.28 386.85 17.87 393.00 28.00
C 393.55 28.90 395.81 29.22 395.00 31.00
C 391.09 31.50 389.43 36.44 386.00 38.00
C 385.23 38.84 384.70 40.18 384.00 41.00
C 386.92 38.00 397.35 33.94 395.77 28.23 C 394.19 22.52 384.39 21.85 383.00 16.00
C 375.42 16.27 366.76 10.85 360.00 16.00 Z"/>
</g>
<g fill="#19753A" fill-opacity="1.00" stroke="None">
<path d="
M 244.00 110.00 
L 245.00 110.00
C 245.26 102.47 244.66 94.48 245.00 87.00 C 245.34 79.52 244.37 70.22 245.00 63.00 C 245.63 55.78 243.59 46.48 245.00 40.00 C 246.41 33.52 241.55 21.28 246.00 17.00
C 251.61 11.39 266.80 15.70 264.00 25.00 C 261.20 34.30 265.29 43.63 264.00 53.00 C 262.71 62.37 264.65 71.54 264.00 81.00 C 263.35 90.46 264.49 100.49 264.00 110.00
L 265.00 110.00
C 265.54 95.46 264.27 81.61 265.00 67.00 C 265.73 52.39 263.58 39.99 265.00 25.00 C 266.42 10.01 241.53 10.92 244.00 26.00 C 246.47 41.08 242.71 53.44 244.00 68.00 C 245.29 82.56 243.03 95.58 244.00 110.00 Z"/>
</g>
<g fill="#D7D8D7" fill-opacity="1.00" stroke="None">
<path d="
M 360.00 16.00 
C 359.61 16.30 358.50 16.79 358.00 17.00
C 356.26 17.72 353.62 18.04 352.00 19.00
C 350.03 20.17 346.68 23.20 345.00 25.00
C 344.63 25.60 344.37 26.36 344.00 27.00
C 345.11 28.80 342.28 36.51 343.00 43.00
C 343.54 44.65 346.40 44.74 346.00 47.00
C 348.71 40.91 350.47 49.27 355.00 48.00
C 351.10 41.92 358.77 46.06 361.00 48.00
C 360.92 45.86 356.60 43.64 359.00 42.00
C 358.55 38.29 357.76 33.86 363.00 33.00
C 363.08 32.99 363.00 32.00 363.00 32.00
C 367.55 27.30 377.59 32.28 381.25 36.75 C 384.90 41.22 392.62 28.04 393.00 28.00
C 386.85 17.87 370.99 12.28 360.00 16.00 Z"/>
</g>
<g fill="#202635" fill-opacity="1.00" stroke="None">
<path d="
M 131.00 20.00 
C 126.74 18.91 123.70 21.46 120.00 22.00
C 119.84 23.31 120.21 24.70 120.00 26.00
C 125.77 21.86 126.07 33.60 130.00 27.00
C 130.38 29.22 130.65 36.31 134.00 33.00
C 134.44 29.11 137.45 18.79 139.00 16.00
C 136.17 17.14 136.41 20.17 134.00 16.00
C 133.18 17.51 132.79 19.31 131.00 20.00 Z"/>
</g>
<g fill="#7A7A7B" fill-opacity="1.00" stroke="None">
<path d="
M 160.00 20.00 
C 158.27 17.29 156.35 16.41 153.00 16.00
C 149.16 16.57 144.09 14.81 141.00 17.00
C 146.56 20.27 155.67 15.13 160.00 20.00 Z"/>
</g>
<g fill="#2F5A3C" fill-opacity="1.00" stroke="None">
<path d="
M 246.00 17.00 
C 249.19 16.71 261.27 15.53 263.00 18.00
C 265.84 22.06 261.73 30.82 263.00 36.00 C 264.27 41.18 262.45 48.25 263.00 54.00 C 263.55 59.75 262.73 67.02 263.00 73.00 C 263.27 78.98 262.87 84.90 263.00 91.00 C 263.13 97.10 262.90 103.84 263.00 110.00
L 264.00 110.00
C 264.49 100.49 263.35 90.46 264.00 81.00 C 264.65 71.54 262.71 62.37 264.00 53.00 C 265.29 43.63 261.20 34.30 264.00 25.00 C 266.80 15.70 251.61 11.39 246.00 17.00 Z"/>
</g>
<g fill="#4A8B5C" fill-opacity="1.00" stroke="None">
<path d="
M 274.00 110.00 
L 275.00 110.00
C 275.71 100.14 274.05 88.70 275.00 79.00 C 275.95 69.30 273.18 57.13 275.00 48.00 C 276.82 38.87 270.77 24.05 276.00 17.00
C 276.24 16.68 276.00 16.00 276.00 16.00
C 271.36 16.99 274.82 29.54 274.00 34.00 C 273.18 38.46 274.37 47.52 274.00 53.00 C 273.63 58.48 274.17 66.06 274.00 72.00 C 273.83 77.94 274.09 84.87 274.00 91.00 C 273.91 97.13 274.07 103.82 274.00 110.00 Z"/>
</g>
<g fill="#376C44" fill-opacity="1.00" stroke="None">
<path d="
M 276.00 17.00 
C 282.64 16.40 290.14 17.43 296.00 18.00
C 304.71 18.00 312.39 18.88 319.00 24.00
C 321.28 25.77 323.38 27.66 325.00 30.00
C 328.40 34.91 329.54 41.30 328.00 47.00
C 326.40 52.91 321.98 57.00 319.00 62.00
C 335.10 67.41 340.80 88.76 331.00 102.00
C 328.94 104.88 325.91 107.10 324.00 110.00
L 327.00 110.00
C 329.90 106.27 332.15 100.18 336.00 97.00
C 337.10 96.09 338.57 95.73 340.00 95.00
C 343.76 93.07 347.55 89.48 352.00 89.00
C 356.09 97.31 365.68 104.09 375.00 100.00
C 382.87 95.38 379.44 85.58 374.25 80.75 C 369.05 75.92 362.93 71.93 358.00 67.00
C 360.64 71.00 364.07 75.19 368.32 77.68 C 372.57 80.17 373.88 84.43 378.00 86.00
C 382.11 96.79 363.18 104.24 357.92 94.08 C 352.67 83.91 345.11 89.80 337.00 94.00
C 339.30 82.86 335.70 68.72 324.00 63.00
C 325.18 54.97 333.59 43.60 329.97 34.03 C 326.36 24.45 319.55 20.22 310.22 17.78 C 300.89 15.34 286.31 15.07 276.00 16.00
C 276.00 16.00 276.24 16.68 276.00 17.00 Z"/>
</g>
<g fill="#3E6753" fill-opacity="1.00" stroke="None">
<path d="
M 352.00 19.00 
C 353.62 18.04 356.26 17.72 358.00 17.00
C 353.60 16.79 355.17 16.62 352.00 19.00 Z"/>
</g>
<g fill="#BBC4D6" fill-opacity="1.00" stroke="None">
<path d="
M 161.00 17.00 
C 159.62 20.74 165.69 22.83 167.19 19.25 C 168.70 15.67 162.33 18.17 161.00 17.00 Z"/>
</g>
<g fill="#B0B4BE" fill-opacity="1.00" stroke="None">
<path d="
M 193.00 26.00 
C 192.59 24.70 189.16 23.91 190.35 21.70 C 191.54 19.48 190.19 18.42 190.00 17.00
C 186.24 20.16 180.68 23.55 183.00 29.00
C 187.58 26.65 187.90 30.63 191.00 32.00
C 192.49 29.54 192.92 27.48 193.00 26.00 Z"/>
</g>
<g fill="#CCFEDB" fill-opacity="1.00" stroke="None">
<path d="
M 245.00 110.00 
L 246.00 110.00
C 246.00 79.33 246.00 48.67 246.00 18.00
C 246.00 17.50 246.00 17.00 246.00 17.00
C 241.55 21.28 246.41 33.52 245.00 40.00 C 243.59 46.48 245.63 55.78 245.00 63.00 C 244.37 70.22 245.34 79.52 245.00 87.00 C 244.66 94.48 245.26 102.47 245.00 110.00 Z"/>
</g>
<g fill="#858B86" fill-opacity="1.00" stroke="None">
<path d="
M 246.00 18.00 
C 251.62 18.51 257.37 17.62 263.00 18.00
C 261.27 15.53 249.19 16.71 246.00 17.00
C 246.00 17.00 246.00 17.50 246.00 18.00 Z"/>
</g>
<g fill="#DDFDE5" fill-opacity="1.00" stroke="None">
<path d="
M 275.00 110.00 
L 276.00 110.00
C 276.00 104.00 276.00 98.00 276.00 92.00
C 276.00 74.67 276.00 57.33 276.00 40.00
C 276.00 32.67 276.00 25.33 276.00 18.00
C 276.00 17.50 276.00 17.00 276.00 17.00
C 270.77 24.05 276.82 38.87 275.00 48.00 C 273.18 57.13 275.95 69.30 275.00 79.00 C 274.05 88.70 275.71 100.14 275.00 110.00 Z"/>
</g>
<g fill="#7C8D84" fill-opacity="1.00" stroke="None">
<path d="
M 276.00 18.00 
C 282.54 18.59 289.43 18.00 296.00 18.00
C 290.14 17.43 282.64 16.40 276.00 17.00
C 276.00 17.00 276.00 17.50 276.00 18.00 Z"/>
</g>
<g fill="#E5E7E5" fill-opacity="1.00" stroke="None">
<path d="
M 246.00 110.00 
L 263.00 110.00
C 262.90 103.84 263.13 97.10 263.00 91.00 C 262.87 84.90 263.27 78.98 263.00 73.00 C 262.73 67.02 263.55 59.75 263.00 54.00 C 262.45 48.25 264.27 41.18 263.00 36.00 C 261.73 30.82 265.84 22.06 263.00 18.00
C 257.37 17.62 251.62 18.51 246.00 18.00
C 246.00 48.67 246.00 79.33 246.00 110.00 Z"/>
</g>
<g fill="#DBDCDC" fill-opacity="1.00" stroke="None">
<path d="
M 276.00 40.00 
C 276.36 42.21 278.83 45.09 278.00 48.00
C 279.42 40.97 289.63 41.72 291.00 48.00
C 291.52 44.74 291.41 40.61 293.00 38.00
C 293.11 36.02 293.32 35.45 294.00 34.00
C 294.39 33.18 293.69 31.85 294.00 31.00
C 304.08 31.46 315.82 36.67 314.00 49.00
C 314.36 49.85 313.71 51.12 314.00 52.00
C 318.66 52.12 322.34 49.95 320.00 56.00
C 324.04 55.07 324.67 49.09 328.00 47.00
C 329.54 41.30 328.40 34.91 325.00 30.00
C 322.04 27.37 317.71 28.10 314.00 28.00
C 313.54 24.97 318.27 26.45 319.00 24.00
C 312.39 18.88 304.71 18.00 296.00 18.00
C 289.43 18.00 282.54 18.59 276.00 18.00
C 276.00 25.33 276.00 32.67 276.00 40.00 Z"/>
</g>
<g fill="#868686" fill-opacity="1.00" stroke="None">
<path d="
M 77.00 32.00 
C 77.35 28.35 77.91 23.38 78.00 19.00
C 77.55 22.72 77.00 27.55 77.00 32.00 Z"/>
</g>
<g fill="#5C966C" fill-opacity="1.00" stroke="None">
<path d="
M 345.00 25.00 
C 346.68 23.20 350.03 20.17 352.00 19.00
C 349.54 20.84 346.88 21.91 345.00 25.00 Z"/>
</g>
<g fill="#C8DECE" fill-opacity="1.00" stroke="None">
<path d="
M 325.00 30.00 
C 323.38 27.66 321.28 25.77 319.00 24.00
C 318.27 26.45 313.54 24.97 314.00 28.00
C 317.71 28.10 322.04 27.37 325.00 30.00 Z"/>
</g>
<g fill="#E9EBEC" fill-opacity="1.00" stroke="None">
<path d="
M 120.00 26.00 
C 119.85 26.94 119.07 28.55 119.00 29.00
C 118.37 33.03 118.80 35.82 117.00 40.00
C 113.59 40.85 116.52 35.19 113.00 36.00
C 112.06 39.97 106.87 40.06 107.00 45.00
C 108.79 42.67 112.65 45.82 114.00 47.00
C 115.06 47.93 115.97 48.98 117.00 50.00
C 114.79 50.75 114.43 50.67 113.00 49.00
C 111.32 48.60 109.05 48.20 108.00 52.00
C 106.82 49.86 110.21 47.28 108.00 46.00
C 107.17 46.64 106.41 47.38 105.00 47.00
C 104.85 49.99 106.89 50.23 107.00 53.00
C 102.00 54.41 105.88 60.20 104.00 64.00
C 102.72 64.28 100.50 63.24 100.00 65.00
C 105.93 65.09 106.67 63.57 110.00 69.00
C 110.14 69.22 111.55 68.85 112.00 69.00
C 110.42 62.07 116.43 60.25 116.00 54.00
C 121.16 53.55 122.36 46.75 128.00 48.00
C 123.51 61.07 118.07 73.99 113.00 86.00
C 112.80 86.32 112.03 86.79 112.00 87.00
C 111.37 90.86 110.21 94.31 109.00 98.00
C 107.68 102.02 105.20 105.64 105.00 110.00
L 123.00 110.00
C 125.51 105.20 125.91 98.69 130.00 95.00
C 128.69 100.09 125.75 104.73 125.00 110.00
L 145.00 110.00
C 144.94 108.06 145.46 104.80 148.00 105.00
C 149.59 99.17 143.01 97.66 139.00 96.00
C 146.90 93.08 155.18 96.47 164.00 95.00 C 172.82 93.53 173.18 103.96 176.00 110.00
L 194.00 110.00
C 186.72 88.50 178.07 67.32 170.00 46.00
C 168.98 43.31 167.98 40.65 167.00 38.00
C 164.95 41.47 163.02 39.03 161.00 37.00
C 161.39 42.07 156.98 45.22 154.00 40.00
C 151.05 41.26 147.59 40.73 146.00 43.00
C 143.69 37.41 136.85 41.51 133.00 40.00
C 135.91 38.06 133.79 34.85 134.00 33.00
C 130.65 36.31 130.38 29.22 130.00 27.00
C 126.07 33.60 125.77 21.86 120.00 26.00
M 131.00 41.00 
C 131.38 41.69 129.01 45.05 129.00 46.00
C 128.17 45.59 127.13 45.03 127.00 44.00
C 125.51 43.69 124.02 44.05 123.00 43.00
C 125.09 41.23 128.63 38.13 131.00 41.00
M 150.00 44.00 
C 152.31 45.12 153.69 51.75 154.77 54.23 C 155.85 56.71 158.55 62.54 158.92 65.08 C 159.30 67.61 164.25 75.00 163.00 77.00
C 159.67 82.33 151.20 74.97 145.00 78.00 C 138.80 81.03 134.42 74.12 138.77 69.77 C 143.12 65.42 140.96 59.10 143.93 55.93 C 146.90 52.75 147.10 42.60 150.00 44.00 Z"/>
</g>
<g fill="#181C2A" fill-opacity="1.00" stroke="None">
<path d="
M 107.00 29.00 
C 108.69 30.35 111.24 34.22 113.00 36.00
C 116.52 35.19 113.59 40.85 117.00 40.00
C 118.80 35.82 118.37 33.03 119.00 29.00
C 117.14 25.55 110.82 26.39 107.00 29.00 Z"/>
</g>
<g fill="#D4F2DC" fill-opacity="1.00" stroke="None">
<path d="
M 344.00 27.00 
C 334.75 43.01 347.04 56.04 358.00 67.00
C 362.93 71.93 369.05 75.92 374.25 80.75 C 379.44 85.58 382.87 95.38 375.00 100.00
C 378.88 98.51 381.18 95.28 382.00 91.00
C 384.36 78.73 366.61 76.52 362.26 68.74 C 357.91 60.97 344.20 53.74 343.00 43.00
C 342.28 36.51 345.11 28.80 344.00 27.00 Z"/>
</g>
<g fill="#E4E7EB" fill-opacity="1.00" stroke="None">
<path d="
M 176.00 39.00 
C 177.18 38.57 178.79 39.33 180.00 39.00
C 179.16 40.11 177.54 41.04 176.00 41.00
C 175.75 42.93 177.53 44.17 179.00 45.00
C 179.56 48.24 174.06 48.94 172.00 48.00
C 173.60 50.69 174.07 53.59 176.00 56.00
C 181.52 55.09 180.69 45.48 188.00 47.00
C 188.16 49.64 191.02 51.62 193.00 53.00
C 194.75 51.49 192.43 49.58 191.00 49.00
C 188.53 45.77 183.18 41.40 189.00 41.00
C 184.23 41.78 185.10 38.45 184.00 36.00
C 182.59 36.85 182.28 38.85 180.00 38.00
C 181.18 34.70 176.06 31.88 176.00 28.00
C 172.66 28.94 174.80 33.09 177.00 34.00
C 174.68 35.50 174.94 36.90 176.00 39.00 Z"/>
</g>
<g fill="#D0E6D4" fill-opacity="1.00" stroke="None">
<path d="
M 363.00 32.00 
C 365.67 31.51 368.04 32.47 370.00 33.00
C 374.80 34.30 377.84 36.95 381.00 41.00
C 381.33 41.17 381.77 41.72 382.00 42.00
C 383.01 41.49 385.00 38.92 386.00 38.00
C 389.43 36.44 391.09 31.50 395.00 31.00
C 395.81 29.22 393.55 28.90 393.00 28.00
C 392.62 28.04 384.90 41.22 381.25 36.75 C 377.59 32.28 367.55 27.30 363.00 32.00 Z"/>
</g>
<g fill="#A5A7A8" fill-opacity="1.00" stroke="None">
<path d="
M 89.00 32.00 
C 88.71 36.88 83.94 41.25 83.33 46.33 C 82.71 51.40 80.96 57.53 81.00 62.00
C 81.63 63.86 85.13 66.02 84.00 69.00
C 84.83 61.17 90.03 72.36 90.00 76.00
C 92.55 76.76 95.39 78.14 98.00 79.00
C 97.75 78.80 98.12 77.47 98.00 77.00
C 97.91 76.65 97.30 76.21 97.00 76.00
C 93.21 73.39 94.39 65.21 93.01 60.99 C 91.63 56.77 93.77 46.21 98.00 44.00
C 93.62 37.17 104.13 36.58 105.00 29.00
C 101.02 29.92 92.13 29.63 89.00 32.00 Z"/>
</g>
<g fill="#CCCCCD" fill-opacity="1.00" stroke="None">
<path d="
M 97.00 76.00 
C 95.33 73.06 97.54 67.14 100.00 65.00
C 100.50 63.24 102.72 64.28 104.00 64.00
C 105.88 60.20 102.00 54.41 107.00 53.00
C 106.89 50.23 104.85 49.99 105.00 47.00
C 106.41 47.38 107.17 46.64 108.00 46.00
C 107.77 45.74 107.01 45.34 107.00 45.00
C 106.87 40.06 112.06 39.97 113.00 36.00
C 111.24 34.22 108.69 30.35 107.00 29.00
C 106.66 29.23 105.47 28.89 105.00 29.00
C 104.13 36.58 93.62 37.17 98.00 44.00
C 93.77 46.21 91.63 56.77 93.01 60.99 C 94.39 65.21 93.21 73.39 97.00 76.00
M 103.00 43.00 
C 100.87 42.20 100.17 38.75 103.00 38.00
C 103.33 38.84 104.93 42.03 103.00 43.00 Z"/>
</g>
<g fill="#C7C9CE" fill-opacity="1.00" stroke="None">
<path d="
M 184.00 36.00 
C 185.10 38.45 184.23 41.78 189.00 41.00
C 183.18 41.40 188.53 45.77 191.00 49.00
C 190.55 48.01 189.75 47.23 190.00 46.00
C 194.69 48.18 196.12 52.45 199.00 56.00
C 200.16 54.31 198.05 50.64 202.00 51.00
C 202.35 50.91 202.85 50.34 203.00 50.00
C 203.37 49.16 204.15 46.99 204.00 46.00
C 199.41 44.06 197.28 36.23 197.00 31.00
C 195.65 28.99 196.18 33.42 195.00 34.00
C 190.28 34.30 186.30 35.48 187.00 30.00
C 186.10 31.18 184.11 34.67 184.00 36.00 Z"/>
</g>
<g fill="#CCEBD5" fill-opacity="1.00" stroke="None">
<path d="
M 294.00 34.00 
C 294.05 33.97 303.04 34.86 304.00 35.00
C 304.35 35.05 304.77 35.72 305.00 36.00
C 312.34 38.50 313.63 50.88 306.00 55.00
C 309.25 54.30 313.12 53.18 314.00 49.00
C 315.82 36.67 304.08 31.46 294.00 31.00
C 293.69 31.85 294.39 33.18 294.00 34.00 Z"/>
</g>
<g fill="#62A271" fill-opacity="1.00" stroke="None">
<path d="
M 363.00 33.00 
C 363.71 33.43 366.15 33.00 367.00 33.00
C 367.81 33.00 369.24 32.74 370.00 33.00
C 368.04 32.47 365.67 31.51 363.00 32.00
C 363.00 32.00 363.08 32.99 363.00 33.00 Z"/>
</g>
<g fill="#A6AFC7" fill-opacity="1.00" stroke="None">
<path d="
M 174.00 36.00 
C 173.00 39.64 170.85 32.51 173.00 33.00
C 170.74 33.54 170.88 36.17 171.00 38.00
C 172.27 38.18 173.73 37.33 174.00 36.00 Z"/>
</g>
<g fill="#EDF5FE" fill-opacity="1.00" stroke="None">
<path d="
M 174.00 36.00 
C 174.19 35.09 174.09 33.25 173.00 33.00
C 170.85 32.51 173.00 39.64 174.00 36.00 Z"/>
</g>
<g fill="#3B7048" fill-opacity="1.00" stroke="None">
<path d="
M 359.00 42.00 
C 362.51 52.62 373.77 55.00 381.75 63.25 C 389.72 71.51 397.89 79.91 397.00 93.00
C 396.55 99.58 393.22 105.02 389.00 110.00
L 391.00 110.00
C 403.63 99.60 401.21 78.21 390.25 67.75 C 379.29 57.30 368.48 50.94 360.00 39.00
C 363.59 38.96 364.48 33.90 367.00 33.00
C 366.15 33.00 363.71 33.43 363.00 33.00
C 357.76 33.86 358.55 38.29 359.00 42.00 Z"/>
</g>
<g fill="#20652D" fill-opacity="1.00" stroke="None">
<path d="
M 381.00 41.00 
C 377.84 36.95 374.80 34.30 370.00 33.00
C 373.73 34.26 377.18 39.09 381.00 41.00 Z"/>
</g>
<g fill="#286D3B" fill-opacity="1.00" stroke="None">
<path d="
M 293.00 38.00 
C 292.65 43.98 293.26 50.02 293.00 56.00
C 297.40 55.89 301.95 56.52 306.00 55.00
C 313.63 50.88 312.34 38.50 305.00 36.00
C 309.88 41.99 311.46 47.58 306.00 53.00
C 304.40 49.71 297.95 55.97 296.08 50.92 C 294.21 45.86 297.25 42.03 295.00 37.00
C 297.64 35.36 301.86 37.08 304.00 35.00
C 303.04 34.86 294.05 33.97 294.00 34.00
C 293.32 35.45 293.11 36.02 293.00 38.00 Z"/>
</g>
<g fill="#09852F" fill-opacity="1.00" stroke="None">
<path d="
M 305.00 36.00 
C 304.77 35.72 304.35 35.05 304.00 35.00
C 301.86 37.08 297.64 35.36 295.00 37.00
C 297.25 42.03 294.21 45.86 296.08 50.92 C 297.95 55.97 304.40 49.71 306.00 53.00
C 311.46 47.58 309.88 41.99 305.00 36.00 Z"/>
</g>
<g fill="#929292" fill-opacity="1.00" stroke="None">
<path d="
M 103.00 43.00 
C 104.93 42.03 103.33 38.84 103.00 38.00
C 100.17 38.75 100.87 42.20 103.00 43.00 Z"/>
</g>
<g fill="#F1F4F2" fill-opacity="1.00" stroke="None">
<path d="
M 276.00 40.00 
C 276.00 57.33 276.00 74.67 276.00 92.00
C 276.20 89.97 277.34 86.34 278.00 84.00
C 277.42 91.50 289.63 84.19 288.00 92.00
C 289.33 90.27 289.75 87.38 290.00 85.00
C 293.59 88.13 290.47 94.63 293.00 98.00
C 293.45 94.12 292.40 87.61 293.00 84.00 C 293.60 80.39 290.97 72.59 295.00 72.00
C 295.61 67.48 309.76 73.47 313.00 72.00
C 315.59 74.93 317.45 78.15 318.00 82.00
C 318.08 82.49 318.00 83.00 318.00 83.00
C 318.89 84.24 319.96 86.19 320.00 88.00
C 323.96 88.42 327.23 87.99 330.00 86.00
C 329.54 92.81 331.71 97.46 331.00 102.00
C 340.80 88.76 335.10 67.41 319.00 62.00
C 321.98 57.00 326.40 52.91 328.00 47.00
C 324.67 49.09 324.04 55.07 320.00 56.00
C 322.34 49.95 318.66 52.12 314.00 52.00
C 313.71 51.12 314.36 49.85 314.00 49.00
C 313.12 53.18 309.25 54.30 306.00 55.00
C 301.95 56.52 297.40 55.89 293.00 56.00
C 293.26 50.02 292.65 43.98 293.00 38.00
C 291.41 40.61 291.52 44.74 291.00 48.00
C 289.63 41.72 279.42 40.97 278.00 48.00
C 278.83 45.09 276.36 42.21 276.00 40.00 Z"/>
</g>
<g fill="#72A683" fill-opacity="1.00" stroke="None">
<path d="
M 382.00 42.00 
C 383.10 43.34 383.14 42.01 384.00 41.00
C 384.70 40.18 385.23 38.84 386.00 38.00
C 385.00 38.92 383.01 41.49 382.00 42.00 Z"/>
</g>
<g fill="#03090C" fill-opacity="1.00" stroke="None">
<path d="
M 176.00 41.00 
C 177.54 41.04 179.16 40.11 180.00 39.00
C 178.79 39.33 177.18 38.57 176.00 39.00
C 176.20 39.40 175.92 40.51 176.00 41.00 Z"/>
</g>
<g fill="#888B8C" fill-opacity="1.00" stroke="None">
<path d="
M 127.00 44.00 
C 128.13 43.58 129.17 40.80 131.00 41.00
C 128.63 38.13 125.09 41.23 123.00 43.00
C 124.02 44.05 125.51 43.69 127.00 44.00 Z"/>
</g>
<g fill="#1E1F25" fill-opacity="1.00" stroke="None">
<path d="
M 127.00 44.00 
C 127.13 45.03 128.17 45.59 129.00 46.00
C 129.01 45.05 131.38 41.69 131.00 41.00
C 129.17 40.80 128.13 43.58 127.00 44.00 Z"/>
</g>
<g fill="#F3F5F4" fill-opacity="1.00" stroke="None">
<path d="
M 343.00 43.00 
C 344.20 53.74 357.91 60.97 362.26 68.74 C 366.61 76.52 384.36 78.73 382.00 91.00
C 384.75 86.74 389.35 89.17 393.00 86.00
C 393.59 88.91 391.41 91.06 392.00 94.00
C 392.95 91.10 394.63 90.66 397.00 93.00
C 397.89 79.91 389.72 71.51 381.75 63.25 C 373.77 55.00 362.51 52.62 359.00 42.00
C 356.60 43.64 360.92 45.86 361.00 48.00
C 358.77 46.06 351.10 41.92 355.00 48.00
C 350.47 49.27 348.71 40.91 346.00 47.00
C 346.40 44.74 343.54 44.65 343.00 43.00 Z"/>
</g>
<g fill="#4E5B65" fill-opacity="1.00" stroke="None">
<path d="
M 163.00 77.00 
C 161.71 76.56 160.79 75.42 161.00 74.00
C 155.59 78.36 146.06 74.89 139.00 76.00
C 140.49 64.69 146.90 54.85 150.00 44.00
C 147.10 42.60 146.90 52.75 143.93 55.93 C 140.96 59.10 143.12 65.42 138.77 69.77 C 134.42 74.12 138.80 81.03 145.00 78.00 C 151.20 74.97 159.67 82.33 163.00 77.00 Z"/>
</g>
<g fill="#3A3B3D" fill-opacity="1.00" stroke="None">
<path d="
M 107.00 45.00 
C 107.01 45.34 107.77 45.74 108.00 46.00
C 110.21 47.28 106.82 49.86 108.00 52.00
C 109.05 48.20 111.32 48.60 113.00 49.00
C 113.23 48.82 114.13 47.32 114.00 47.00
C 112.65 45.82 108.79 42.67 107.00 45.00 Z"/>
</g>
<g fill="#112B48" fill-opacity="1.00" stroke="None">
<path d="
M 163.00 77.00 
C 164.25 75.00 159.30 67.61 158.92 65.08 C 158.55 62.54 155.85 56.71 154.77 54.23 C 153.69 51.75 152.31 45.12 150.00 44.00
C 146.90 54.85 140.49 64.69 139.00 76.00
C 146.06 74.89 155.59 78.36 161.00 74.00
C 160.79 75.42 161.71 76.56 163.00 77.00 Z"/>
</g>
<g fill="#161B2C" fill-opacity="1.00" stroke="None">
<path d="
M 204.00 46.00 
C 204.15 46.99 203.37 49.16 203.00 50.00
C 206.48 50.93 210.11 49.97 214.00 51.00
C 214.53 48.32 210.52 47.66 211.00 45.00
C 207.92 45.52 207.26 47.38 204.00 46.00 Z"/>
</g>
<g fill="#595959" fill-opacity="1.00" stroke="None">
<path d="
M 194.00 110.00 
L 196.00 110.00
C 194.25 106.47 193.33 102.64 192.00 99.00
C 190.76 95.61 189.24 92.36 188.00 89.00
C 184.18 78.65 177.79 67.93 176.00 57.00
C 175.92 56.51 176.00 56.00 176.00 56.00
C 174.07 53.59 173.60 50.69 172.00 48.00
C 171.42 47.03 170.63 46.80 170.00 46.00
C 178.07 67.32 186.72 88.50 194.00 110.00 Z"/>
</g>
<g fill="#1D2638" fill-opacity="1.00" stroke="None">
<path d="
M 191.00 49.00 
C 192.43 49.58 194.75 51.49 193.00 53.00
C 191.02 51.62 188.16 49.64 188.00 47.00
C 180.69 45.48 181.52 55.09 176.00 56.00
C 176.00 56.00 175.92 56.51 176.00 57.00
C 179.91 57.26 184.27 55.73 188.00 55.00
C 188.19 59.42 189.66 60.18 193.00 63.00
C 195.97 64.04 195.94 59.97 199.00 61.00
C 201.54 61.04 205.96 65.21 209.00 63.00
C 208.46 60.73 210.52 59.23 210.00 57.00
C 205.99 57.96 200.66 56.02 202.00 51.00
C 198.05 50.64 200.16 54.31 199.00 56.00
C 196.12 52.45 194.69 48.18 190.00 46.00
C 189.75 47.23 190.55 48.01 191.00 49.00
M 194.00 54.00 
C 191.55 58.77 187.88 52.63 194.00 54.00 Z"/>
</g>
<g fill="#75777B" fill-opacity="1.00" stroke="None">
<path d="
M 113.00 49.00 
C 114.43 50.67 114.79 50.75 117.00 50.00
C 115.97 48.98 115.06 47.93 114.00 47.00
C 114.13 47.32 113.23 48.82 113.00 49.00 Z"/>
</g>
<g fill="#12263E" fill-opacity="1.00" stroke="None">
<path d="
M 112.00 69.00 
C 112.40 70.77 114.79 70.19 112.00 72.00
C 113.41 72.14 115.51 73.67 116.00 75.00
C 113.81 75.76 112.68 73.70 111.00 73.00
C 110.01 73.12 108.99 72.91 108.00 73.00
C 108.42 70.90 111.94 71.32 110.00 69.00
C 106.67 63.57 105.93 65.09 100.00 65.00
C 97.54 67.14 95.33 73.06 97.00 76.00
C 97.30 76.21 97.91 76.65 98.00 77.00
C 101.27 77.48 102.09 73.50 105.00 73.00
C 101.18 79.42 110.30 78.05 107.00 84.00
C 108.77 85.45 111.22 84.57 113.00 86.00
C 118.07 73.99 123.51 61.07 128.00 48.00
C 122.36 46.75 121.16 53.55 116.00 54.00
C 116.43 60.25 110.42 62.07 112.00 69.00 Z"/>
</g>
<g fill="#767676" fill-opacity="1.00" stroke="None">
<path d="
M 76.00 60.00 
C 76.16 58.30 76.95 55.41 77.00 53.00
C 76.84 54.70 76.05 57.59 76.00 60.00 Z"/>
</g>
<g fill="#5E5E5E" fill-opacity="1.00" stroke="None">
<path d="
M 70.00 54.00 
C 67.81 55.70 69.56 59.48 69.00 62.00
C 71.19 60.30 69.44 56.52 70.00 54.00 Z"/>
</g>
<g fill="#717E8F" fill-opacity="1.00" stroke="None">
<path d="
M 194.00 54.00 
C 187.88 52.63 191.55 58.77 194.00 54.00 Z"/>
</g>
<g fill="#EAEBEC" fill-opacity="1.00" stroke="None">
<path d="
M 176.00 57.00 
C 177.79 67.93 184.18 78.65 188.00 89.00
C 188.21 87.91 190.55 85.62 192.00 86.00
C 186.28 84.28 194.68 83.88 190.00 81.00
C 198.11 78.11 192.87 65.58 199.00 61.00
C 195.94 59.97 195.97 64.04 193.00 63.00
C 189.66 60.18 188.19 59.42 188.00 55.00
C 184.27 55.73 179.91 57.26 176.00 57.00 Z"/>
</g>
<g fill="#BFC1C1" fill-opacity="1.00" stroke="None">
<path d="
M 188.00 89.00 
C 189.24 92.36 190.76 95.61 192.00 99.00
C 201.81 95.52 200.43 77.47 208.00 70.00
C 202.43 72.18 202.82 68.26 208.00 68.00
C 207.75 67.71 208.00 67.00 208.00 67.00
C 207.00 67.00 206.00 67.00 205.00 67.00
C 204.22 63.97 208.14 64.53 209.00 63.00
C 205.96 65.21 201.54 61.04 199.00 61.00
C 192.87 65.58 198.11 78.11 190.00 81.00
C 194.68 83.88 186.28 84.28 192.00 86.00
C 190.55 85.62 188.21 87.91 188.00 89.00 Z"/>
</g>
<g fill="#121F2C" fill-opacity="1.00" stroke="None">
<path d="
M 85.00 91.00 
C 84.03 86.43 85.85 79.72 85.00 75.00
C 86.40 76.21 88.26 75.98 90.00 76.00
C 90.03 72.36 84.83 61.17 84.00 69.00
C 85.13 66.02 81.63 63.86 81.00 62.00
C 81.09 72.10 81.34 81.89 85.00 91.00 Z"/>
</g>
<g fill="#44464A" fill-opacity="1.00" stroke="None">
<path d="
M 222.00 68.00 
C 222.15 66.76 222.09 65.25 222.00 64.00
C 222.00 63.89 219.67 64.56 220.08 65.92 C 220.50 67.27 221.97 67.34 222.00 68.00 Z"/>
</g>
<g fill="#181A24" fill-opacity="1.00" stroke="None">
<path d="
M 208.00 67.00 
C 208.00 67.00 207.75 67.71 208.00 68.00
C 212.11 71.55 209.61 79.25 215.00 82.00
C 215.84 79.15 209.72 65.21 208.00 67.00 Z"/>
</g>
<g fill="#848484" fill-opacity="1.00" stroke="None">
<path d="
M 71.00 90.00 
C 71.56 91.77 73.95 90.63 75.00 92.00
C 76.53 89.67 75.95 86.72 76.00 84.00
C 73.43 85.26 76.50 89.67 74.00 91.00
C 73.20 83.35 77.02 75.03 74.00 68.00
C 72.68 72.74 75.88 88.41 71.00 90.00 Z"/>
</g>
<g fill="#4C5F79" fill-opacity="1.00" stroke="None">
<path d="
M 111.00 73.00 
C 110.90 72.78 111.69 72.20 112.00 72.00
C 114.79 70.19 112.40 70.77 112.00 69.00
C 111.55 68.85 110.14 69.22 110.00 69.00
C 111.94 71.32 108.42 70.90 108.00 73.00
C 108.99 72.91 110.01 73.12 111.00 73.00 Z"/>
</g>
<g fill="#D7F8E2" fill-opacity="1.00" stroke="None">
<path d="
M 295.00 72.00 
C 295.49 71.93 296.00 72.00 296.00 72.00
C 298.94 72.00 301.74 72.58 304.00 73.00
C 306.18 73.16 307.99 73.26 310.00 74.00
C 314.16 75.53 315.59 79.00 318.00 82.00
C 317.45 78.15 315.59 74.93 313.00 72.00
C 309.76 73.47 295.61 67.48 295.00 72.00 Z"/>
</g>
<g fill="#A7BFD4" fill-opacity="1.00" stroke="None">
<path d="
M 111.00 73.00 
C 112.68 73.70 113.81 75.76 116.00 75.00
C 115.51 73.67 113.41 72.14 112.00 72.00
C 111.69 72.20 110.90 72.78 111.00 73.00 Z"/>
</g>
<g fill="#2C6A3D" fill-opacity="1.00" stroke="None">
<path d="
M 293.00 98.00 
C 296.63 97.67 300.35 98.20 304.00 98.00
C 312.61 97.53 319.84 93.15 318.00 83.00
C 316.36 86.47 315.70 91.30 314.00 95.00
C 309.56 93.70 299.68 99.22 295.78 95.22 C 291.88 91.22 297.08 79.06 295.00 74.00
C 299.99 73.12 306.11 75.34 310.00 74.00
C 307.99 73.26 306.18 73.16 304.00 73.00
C 301.11 72.79 298.20 73.63 296.00 72.00
C 296.00 72.00 295.49 71.93 295.00 72.00
C 290.97 72.59 293.60 80.39 293.00 84.00 C 292.40 87.61 293.45 94.12 293.00 98.00 Z"/>
</g>
<g fill="#72B382" fill-opacity="1.00" stroke="None">
<path d="
M 304.00 73.00 
C 301.74 72.58 298.94 72.00 296.00 72.00
C 298.20 73.63 301.11 72.79 304.00 73.00 Z"/>
</g>
<g fill="#B9C7D4" fill-opacity="1.00" stroke="None">
<path d="
M 98.00 77.00 
C 98.12 77.47 97.75 78.80 98.00 79.00
C 103.65 80.86 106.18 87.16 112.00 87.00
C 112.03 86.79 112.80 86.32 113.00 86.00
C 111.22 84.57 108.77 85.45 107.00 84.00
C 110.30 78.05 101.18 79.42 105.00 73.00
C 102.09 73.50 101.27 77.48 98.00 77.00 Z"/>
</g>
<g fill="#5A5A5A" fill-opacity="1.00" stroke="None">
<path d="
M 71.00 74.00 
C 69.13 76.68 69.77 76.98 68.00 74.00
C 68.48 78.28 66.94 83.13 69.00 87.00
C 70.69 83.40 71.04 78.42 71.00 74.00 Z"/>
</g>
<g fill="#0A842E" fill-opacity="1.00" stroke="None">
<path d="
M 318.00 83.00 
C 318.00 83.00 318.08 82.49 318.00 82.00
C 315.59 79.00 314.16 75.53 310.00 74.00
C 306.11 75.34 299.99 73.12 295.00 74.00
C 297.08 79.06 291.88 91.22 295.78 95.22 C 299.68 99.22 309.56 93.70 314.00 95.00
C 315.70 91.30 316.36 86.47 318.00 83.00 Z"/>
</g>
<g fill="#0F3652" fill-opacity="1.00" stroke="None">
<path d="
M 85.00 91.00 
C 87.47 97.15 91.13 102.83 95.00 108.00
C 94.88 105.81 94.97 104.80 93.00 102.00
C 99.34 101.60 106.47 96.94 107.00 91.00
C 108.20 93.09 107.18 96.45 109.00 98.00
C 110.21 94.31 111.37 90.86 112.00 87.00
C 106.18 87.16 103.65 80.86 98.00 79.00
C 95.39 78.14 92.55 76.76 90.00 76.00
C 88.26 75.98 86.40 76.21 85.00 75.00
C 85.85 79.72 84.03 86.43 85.00 91.00 Z"/>
</g>
<g fill="#0D101D" fill-opacity="1.00" stroke="None">
<path d="
M 219.00 85.00 
C 219.34 83.95 219.65 83.03 220.00 82.00
C 218.06 81.88 214.76 82.60 215.00 85.00
C 216.33 85.00 217.67 85.00 219.00 85.00 Z"/>
</g>
<g fill="#D0E7D8" fill-opacity="1.00" stroke="None">
<path d="
M 304.00 98.00 
C 300.83 98.51 296.85 99.35 293.00 99.00
C 295.57 103.76 305.68 100.29 310.07 100.07 C 314.47 99.85 320.10 92.63 320.00 88.00
C 319.96 86.19 318.89 84.24 318.00 83.00
C 319.84 93.15 312.61 97.53 304.00 98.00 Z"/>
</g>
<g fill="#DBDBDB" fill-opacity="1.00" stroke="None">
<path d="
M 276.00 92.00 
C 276.00 98.00 276.00 104.00 276.00 110.00
L 324.00 110.00
C 325.91 107.10 328.94 104.88 331.00 102.00
C 331.71 97.46 329.54 92.81 330.00 86.00
C 327.23 87.99 323.96 88.42 320.00 88.00
C 320.10 92.63 314.47 99.85 310.07 100.07 C 305.68 100.29 295.57 103.76 293.00 99.00
C 292.79 98.61 293.00 98.00 293.00 98.00
C 290.47 94.63 293.59 88.13 290.00 85.00
C 289.75 87.38 289.33 90.27 288.00 92.00
C 289.63 84.19 277.42 91.50 278.00 84.00
C 277.34 86.34 276.20 89.97 276.00 92.00 Z"/>
</g>
<g fill="#D9DBD9" fill-opacity="1.00" stroke="None">
<path d="
M 382.00 91.00 
C 381.18 95.28 378.88 98.51 375.00 100.00
C 365.68 104.09 356.09 97.31 352.00 89.00
C 347.55 89.48 343.76 93.07 340.00 95.00
C 337.14 98.82 345.77 105.64 347.00 110.00
L 389.00 110.00
C 393.22 105.02 396.55 99.58 397.00 93.00
C 394.63 90.66 392.95 91.10 392.00 94.00
C 391.41 91.06 393.59 88.91 393.00 86.00
C 389.35 89.17 384.75 86.74 382.00 91.00
M 348.00 105.00 
C 344.06 105.59 340.64 100.04 342.00 97.00
C 344.62 98.98 349.38 100.18 348.00 105.00 Z"/>
</g>
<g fill="#165075" fill-opacity="1.00" stroke="None">
<path d="
M 95.00 108.00 
C 95.39 108.53 95.49 109.49 96.00 110.00
L 105.00 110.00
C 105.20 105.64 107.68 102.02 109.00 98.00
C 107.18 96.45 108.20 93.09 107.00 91.00
C 106.47 96.94 99.34 101.60 93.00 102.00
C 94.97 104.80 94.88 105.81 95.00 108.00 Z"/>
</g>
<g fill="#525150" fill-opacity="1.00" stroke="None">
<path d="
M 123.00 110.00 
L 125.00 110.00
C 125.75 104.73 128.69 100.09 130.00 95.00
C 125.91 98.69 125.51 105.20 123.00 110.00 Z"/>
</g>
<g fill="#144A6E" fill-opacity="1.00" stroke="None">
<path d="
M 145.00 110.00 
L 176.00 110.00
C 173.18 103.96 172.82 93.53 164.00 95.00 C 155.18 96.47 146.90 93.08 139.00 96.00
C 143.01 97.66 149.59 99.17 148.00 105.00
C 145.46 104.80 144.94 108.06 145.00 110.00 Z"/>
</g>
<g fill="#1C2529" fill-opacity="1.00" stroke="None">
<path d="
M 210.00 105.00 
C 212.11 101.80 213.51 98.41 215.00 95.00
C 213.65 96.62 210.43 98.53 208.93 100.92 C 207.44 103.31 209.67 106.68 210.00 105.00 Z"/>
</g>
<g fill="#C2E8CF" fill-opacity="1.00" stroke="None">
<path d="
M 336.00 97.00 
C 338.70 101.30 341.65 105.91 345.00 110.00
L 347.00 110.00
C 345.77 105.64 337.14 98.82 340.00 95.00
C 338.57 95.73 337.10 96.09 336.00 97.00 Z"/>
</g>
<g fill="#1E2529" fill-opacity="1.00" stroke="None">
<path d="
M 206.00 96.00 
C 201.57 96.33 206.16 101.05 206.00 96.00 Z"/>
</g>
<g fill="#1A7E33" fill-opacity="1.00" stroke="None">
<path d="
M 327.00 110.00 
L 345.00 110.00
C 341.65 105.91 338.70 101.30 336.00 97.00
C 332.15 100.18 329.90 106.27 327.00 110.00 Z"/>
</g>
<g fill="#E2D5E2" fill-opacity="1.00" stroke="None">
<path d="
M 348.00 105.00 
C 349.38 100.18 344.62 98.98 342.00 97.00
C 340.64 100.04 344.06 105.59 348.00 105.00 Z"/>
</g>
<g fill="#8AAB93" fill-opacity="1.00" stroke="None">
<path d="
M 293.00 99.00 
C 296.85 99.35 300.83 98.51 304.00 98.00
C 300.35 98.20 296.63 97.67 293.00 98.00
C 293.00 98.00 292.79 98.61 293.00 99.00 Z"/>
</g>
<g fill="#6C7073" fill-opacity="1.00" stroke="None">
<path d="
M 202.00 100.00 
C 199.11 103.91 203.21 106.27 202.00 100.00 Z"/>
</g>
</svg>